<?xml version="1.0" encoding="utf-8"?>
<!-- Generator: Adobe Illustrator 16.0.0, SVG Export Plug-In . SVG Version: 6.00 Build 0)  -->
<!DOCTYPE svg PUBLIC "-//W3C//DTD SVG 1.1//EN" "http://www.w3.org/Graphics/SVG/1.1/DTD/svg11.dtd">
<svg version="1.1" id="Capa_1" xmlns="http://www.w3.org/2000/svg" xmlns:xlink="http://www.w3.org/1999/xlink" x="0px" y="0px"
	 width="100px" height="100px" viewBox="0 0 100 100" enable-background="new 0 0 100 100" xml:space="preserve">
<rect fill="#FFFFFF" width="100" height="100"/>
<g>
	<path fill="#FFFFFF" d="M2.875,3.25c31.26,0,62.521,0,93.781,0c0,31.261,0,62.521,0,93.781c-31.261,0-62.521,0-93.781,0
		C2.875,65.771,2.875,34.511,2.875,3.25z M82.302,45.819c0.961,0,1.921,0,2.88,0c0-0.962,0-1.871,0-2.799c-0.982,0-1.932,0-2.881,0
		c0-0.931,0-1.86,0-2.837c1.944,0,3.823,0,5.72,0c0-0.998,0-1.947,0-2.896c0.932,0,1.862,0,2.814,0c0-0.975,0-1.894,0-2.814
		c0.931,0,1.861,0,2.841,0c0-0.964,0-1.876,0-2.819c0.98,0,1.912,0,2.858,0c0-0.945,0-1.855,0-2.816c-0.971,0-1.913,0-2.904,0
		c0-0.993,0-1.936,0-2.865c-0.95,0-1.851,0-2.8,0c0,0.968,0,1.911,0,2.888c-0.969,0-1.888,0-2.808,0c0-0.96,0-1.921,0-2.884
		c-0.96,0-1.869,0-2.772,0c0,0.973,0,1.913,0,2.871c0.951,0,1.868,0,2.786,0c0,0.943-0.001,1.884-0.001,2.826
		c-2.85,0-5.699,0-8.547,0c0-0.942,0-1.885,0.001-2.828c0.928,0,1.856,0,2.788,0c0-0.99,0-1.93,0-2.866c-0.94,0-1.851,0-2.774,0
		c0,0.982,0,1.93-0.001,2.88c-0.943,0-1.886,0-2.828,0.001c0-0.961,0-1.922,0-2.882c-1.932,0-3.81,0-5.707,0
		c0,0.983,0,1.933,0,2.883c-0.931,0-1.859,0-2.836,0c0-2.884,0-5.699,0-8.55c-0.967,0-1.885,0-2.803,0l0.013,0.014
		c-0.005-1.91-0.009-3.821-0.015-5.731c0.941-0.001,1.884-0.001,2.826-0.002c0,0.961,0,1.921,0,2.884c0.96,0,1.87,0,2.774,0
		c0-0.973,0-1.914,0-2.871c-0.953,0-1.87,0-2.788,0c0-0.931,0-1.861,0-2.842c1.951,0,3.831,0,5.703,0c0-0.951,0-1.851,0-2.801
		c-1.905,0-3.785,0-5.703,0c0-0.97,0-1.889,0-2.808c1.897,0,3.795,0,5.697,0c0-0.959,0-1.87,0-2.775c-1.908,0-3.786,0-5.684,0
		c0,0.951,0,1.871,0,2.789c-0.931,0-1.861,0-2.841,0c0,0.965,0,1.877,0,2.78c-0.952,0-1.852,0-2.803,0c0-0.936,0-1.848,0-2.781
		c-1.001,0-1.951,0-2.901,0c0-0.928,0-1.857,0-2.79c-0.961,0-1.87,0-2.773,0c0,0.941,0,1.851,0,2.777c0.951,0,1.869,0,2.786,0
		c0,2.817,0,5.634-0.001,8.452c-0.941,0-1.884,0-2.827,0c0-1.869,0-3.736,0-5.626c-0.974,0-1.893,0-2.812,0c0-0.929,0-1.857,0-2.833
		c-0.966,0-1.882,0-2.798,0c0-0.928,0-1.856,0-2.765c-1.959,0-3.836,0-5.705,0c0,0.938,0,1.836,0,2.75c1.922,0,3.82,0,5.717,0.001
		c-0.005,0.95-0.011,1.898-0.015,2.846c-0.962,0-1.925,0-2.908,0c0,1.912,0,3.77,0,5.627c-3.787-0.001-7.574-0.001-11.362-0.002
		c0-1.869,0-3.736,0-5.656c1.014,0,1.958,0,2.889,0c0-0.952,0-1.852,0-2.757c-1.907,0-3.788,0-5.719,0c0,0.944,0,1.856,0,2.753
		c-0.952,0-1.853,0-2.803,0c0-1.878,0-3.728,0-5.577c-0.952,0-1.852,0-2.804,0c0,0.934,0,1.847,0,2.808c-0.994,0-1.938,0-2.877,0
		c0,0.953,0,1.853,0,2.804c0.966,0,1.91,0,2.847,0c0,0.964,0,1.875,0,2.821c-0.967,0-1.899,0-2.84,0c0,0.946,0,1.857,0,2.792
		c1.919,0,3.808,0,5.696,0c0,2.836,0,5.67,0,8.507c0.962,0,1.873,0,2.801,0c0-2.858,0-5.682,0-8.507
		c0.942,0,1.883-0.001,2.825-0.001c0,0.961,0,1.922,0,2.931c0.995,0,1.936,0,2.91,0c0,0.967,0,1.886,0,2.804
		c-0.963,0-1.925,0-2.878,0c0,2.874,0,5.692,0,8.502c0.967,0,1.898,0,2.882,0c0-0.967,0-1.91,0-2.888c0.971,0,1.89,0,2.81,0
		c0,0.96,0,1.92,0,2.929c0.96,0,1.871,0,2.828,0c0,0.959,0,1.87,0,2.791c1.935,0,3.82,0,5.706,0
		c-0.006,0.941-0.01,1.884-0.016,2.826l0.014-0.013c-0.962,0-1.924,0-2.907,0c0,1.959,0,3.847,0,5.736
		c-3.787-0.001-7.573-0.001-11.361-0.001c0-1.9,0-3.8,0-5.75c1.013,0,1.957,0,2.888,0c0-0.952,0-1.853,0-2.758
		c-1.907,0-3.787,0-5.719,0c0,0.944,0,1.856,0,2.753c-0.952,0-1.853,0-2.755,0c0-1.876,0-3.726,0-5.609c0.934,0,1.834,0,2.751,0
		c0-0.979,0-1.92,0-2.863c-4.722,0-9.415,0-14.109,0c0,0.965,0,1.896,0,2.878c2.841,0,5.659,0,8.476,0c0,0.964,0,1.875,0,2.82
		c-0.966,0-1.897,0-2.843,0c0,0.947,0,1.858,0,2.82c0.973,0,1.917,0,2.853,0c0,2.859,0,5.667,0,8.525c-0.967,0-1.911,0-2.875,0
		c0,0.971,0,1.89,0,2.81c-0.943,0-1.886,0-2.828,0c0-0.929,0-1.86,0-2.837c-0.961,0-1.872,0-2.814,0c0-0.967,0-1.884,0-2.802
		c0.93,0,1.86,0,2.788,0c0-0.994,0-1.936,0-2.895c-0.951,0-1.869,0-2.788,0c0-0.942,0-1.883,0-2.825c0.929,0,1.858,0,2.79,0
		c0-0.96,0-1.87,0-2.774c-0.941,0-1.85,0-2.776,0c0,0.953,0,1.87,0,2.788c-0.931,0-1.861,0-2.842,0c0-2.89,0-5.708,0-8.517
		c-4.732,0-9.415,0-14.106,0c0,0.969,0,1.91,0,2.903c1.88,0,3.729,0,5.612,0c0,0.952,0,1.853,0,2.804c1.884,0,3.733,0,5.618,0
		c0,2.877,0,5.703,0,8.529c-0.93,0-1.86,0-2.837,0c0-1.944,0-3.823,0-5.719c-1.904,0-3.76,0-5.615,0c0-0.929,0-1.858,0-2.79
		c-0.961,0-1.87,0-2.773,0c0,0.94,0,1.851,0,2.776c0.952,0,1.869,0,2.787,0c0,0.931,0,1.861,0,2.841c-0.981,0-1.893,0-2.797,0
		c0,0.982,0,1.912,0,2.892c1.872,0,3.721,0,5.571,0c0,2.835,0,5.621,0,8.442c-0.95,0-1.868,0-2.788,0c0-0.929,0-1.858,0-2.79
		c-0.961,0-1.87,0-2.773,0c0,0.94,0,1.851,0,2.777c0.952,0,1.869,0,2.787,0c0,0.96,0,1.921,0,2.881c1.899,0,3.745,0,5.637,0
		c0-2.847,0-5.662,0-8.509c0.964,0,1.883,0,2.801,0c0,1.868,0,3.736,0,5.627c1.006,0,1.957,0,2.908,0c0,0.961,0,1.925,0,2.937
		c-1.013,0-1.957,0-2.932,0c0,0.952,0,1.852,0,2.804c-0.946,0-1.858,0-2.82,0c0,0.963,0,1.874,0,2.818c-2.827,0-5.603,0-8.385,0
		c0,0.945,0,1.857,0,2.818c0.943,0,1.855,0,2.799,0c0,4.766,0,9.478,0,14.2c0.945,0,1.856,0,2.818,0c0-1.911,0-3.791,0-5.664
		c0.951,0,1.851,0,2.802,0c0,0.937,0,1.849,0,2.781c1.94,0,3.828,0,5.716,0c0,0.961,0,1.923,0,2.882c1.9,0,3.747,0,5.613,0
		c0-0.981,0-1.932,0-2.881c0.93,0,1.859,0,2.788,0c0-0.963,0-1.873,0-2.801c-0.951,0-1.87,0-2.788,0
		c0.005-0.941,0.01-1.884,0.016-2.825l-0.014,0.013c3.772,0,7.543,0,11.366,0c0-0.972,0-1.884,0-2.828c0.969,0,1.888,0,2.807,0
		c0,0.932,0,1.861,0,2.843c0.999,0,1.941,0,2.875,0c0,0.951,0,1.852,0,2.802c-0.967,0-1.911,0-2.845,0c0,1.932,0,3.812,0,5.685
		c0.968,0,1.898,0,2.882,0c0-0.968,0-1.91,0-2.889c0.969,0,1.89,0,2.809,0c0,0.961,0,1.921,0,2.881c0.961,0,1.872,0,2.8,0
		c0-0.981,0-1.932,0-2.881c0.943,0,1.886,0,2.827,0.001c0,0.962,0,1.925,0,2.937c1,0,1.944,0,2.873,0c0,0.953,0,1.854,0,2.805
		c-1.907,0-3.788,0-5.703,0c0,0.952,0,1.854,0,2.805c-0.946,0-1.859,0-2.769,0c0,0.963,0,1.876,0,2.82c1.873,0,3.711,0,5.602,0
		c0,0.978,0,1.922,0,2.916c0.994,0,1.938,0,2.914,0c0,0.951,0,1.853,0,2.804c2.823,0,5.609,0,8.386,0c0,0.964,0,1.875,0,2.821
		c-0.938,0-1.838,0-2.741,0c0,1.915,0,3.795,0,5.679c0.934,0,1.834,0,2.785,0c0-0.966,0-1.908,0-2.85c1.933,0,3.812,0,5.729,0
		c0,0.966,0,1.897,0,2.842c0.946,0,1.858,0,2.792,0c0-1.918,0-3.807,0-5.695c0.929,0,1.858,0,2.79,0c0-0.961,0-1.87,0-2.774
		c-0.94,0-1.85,0-2.776,0c0,0.952,0,1.869,0,2.787c-1.864,0-3.729,0-5.603,0c0-0.971,0-1.88,0-2.838c0.938,0,1.85,0,2.792,0
		c0-0.968,0-1.885,0-2.803l-0.014,0.014c0.93,0,1.858,0,2.837,0c0-1.009,0-1.951,0-2.877c0.96,0,1.87,0,2.812,0
		c0,0.968,0,1.898,0,2.877c0.975,0,1.917,0,2.906,0c0,0.96,0,1.871,0,2.798c0.968,0,1.886,0,2.804,0
		c-0.005,0.938-0.011,1.874-0.018,2.812c-0.929,0-1.857,0-2.818,0c0,0.984,0,1.883,0,2.834c-0.976,0-1.919,0-2.854,0
		c0,0.993,0,1.935,0,2.874c1.903,0,3.771,0,5.658,0c0-1.922,0-3.821,0.002-5.72c0.939,0,1.88,0,2.832,0c0-0.967,0-1.883,0-2.8
		c2.835,0,5.668,0,8.509,0c0,0.973,0,1.884,0,2.844c-0.942,0-1.854,0-2.76,0c0,1.917,0,3.784,0,5.671c0.934,0,1.844,0,2.804,0
		c0-0.969,0-1.911,0-2.888c0.969,0,1.888,0,2.806,0c0,0.96,0,1.921,0,2.884c0.962,0,1.871,0,2.774,0c0-0.973,0-1.913,0-2.87
		c-0.952,0-1.87,0-2.788,0c0-1.868,0-3.736,0-5.655c1.951,0,3.831,0,5.704,0c0-0.95,0-1.851,0-2.801c-0.967,0-1.911,0-2.89,0
		c0-1.002,0-1.953,0-2.903c0.961,0,1.923,0,2.882,0c0-0.963,0-1.873,0-2.802c-0.982,0-1.932,0-2.882,0c0-0.941,0-1.883,0-2.824
		c0.961,0,1.922,0,2.884,0c0-1.932,0-3.81,0-5.68c-0.974,0-1.915,0-2.87,0c0,1.921,0,3.807,0,5.693c-2.804,0-5.605,0-8.417,0
		c0-1.94,0-3.819,0-5.745c1.876,0,3.724,0,5.59,0c0-0.966,0-1.886,0-2.804c0.931,0,1.86,0,2.839,0c0-0.963,0-1.874,0-2.832
		c0.99,0,1.934,0,2.864,0c0-0.949,0-1.848,0-2.796c-0.965,0-1.907,0-2.897,0c0-0.991,0-1.934,0-2.894c-0.968,0-1.886,0-2.805,0
		c0.006-0.936,0.013-1.873,0.019-2.81c0.929,0,1.858,0,2.82,0c0-0.985,0-1.886,0-2.835c0.977,0,1.919,0,2.852,0
		c0-0.963,0-1.875,0-2.818c-0.968,0-1.899,0-2.881,0c0-0.977,0-1.92,0-2.883c-0.97,0-1.889,0-2.808,0
		c0.005-0.937,0.011-1.875,0.017-2.812c0.929,0,1.857,0,2.819,0c0-0.983,0-1.883,0-2.833c0.975,0,1.918,0,2.854,0
		c0-0.961,0-1.872,0-2.781c-1.903,0-3.771,0-5.659,0c0,1.891,0,3.758-0.001,5.626c-0.941,0-1.88,0-2.803,0c0,0.958,0,1.866,0,2.787
		c0.953,0,1.869,0,2.785,0c-0.002,1.544-0.01,3.089-0.007,4.633c0.003,1.311,0.017,2.619,0.024,3.928
		c-0.949-0.005-1.897-0.01-2.847-0.015c0-1.868,0-3.736,0-5.626c-0.973,0-1.892,0-2.812,0c0-0.962,0-1.925,0-2.908
		c-1.005,0-1.956,0-2.906,0C82.302,47.704,82.302,46.762,82.302,45.819z M28.484,74.248c-0.961,0-1.922,0-2.882,0
		c0,1.901,0,3.749,0,5.615c0.982,0,1.932,0,2.882,0c0,0.93,0,1.86,0,2.84c-1.011,0-1.954,0-2.878,0c0,4.772,0,9.493,0,14.209
		c0.967,0,1.898,0,2.878,0c0-1.903,0-3.783,0-5.711c1.897,0,3.746,0,5.628,0c0-1.905,0-3.761,0-5.617l-0.014,0.014
		c0.947-0.011,1.894-0.022,2.839-0.032c0,0.932,0,1.861,0,2.843c0.968,0,1.91,0,2.854,0c0,0.962,0,1.872,0,2.831
		c-0.973,0-1.916,0-2.852,0c0,1.918,0,3.786,0,5.671c0.965,0,1.907,0,2.897,0c0-0.97,0-1.911,0-2.872c0.969,0,1.888,0,2.806,0
		l-0.013-0.013c0,0.961,0,1.923,0,2.876c3.827,0,7.582,0,11.331,0c0-0.969,0-1.9,0-2.882c-0.938,0-1.849,0-2.811,0
		c0-0.963,0-1.875,0-2.819c-0.983,0-1.915,0-2.897,0c0-0.946,0-1.858,0-2.82c-0.961,0-1.874,0-2.819,0c0-0.951,0-1.852,0-2.801
		c-2.858,0-5.683,0-8.507,0c0-1.898,0-3.796,0-5.728c0.997,0,1.928,0,2.866,0c0-0.945,0-1.857,0-2.789c-1.919,0-3.808,0-5.695,0
		c0-2.836,0-5.671,0-8.509c-1.898,0-3.746,0-5.613,0C28.484,70.474,28.484,72.361,28.484,74.248z M22.736,77.09
		c-6.608,0-13.176,0-19.729,0c0,6.634,0,13.232,0,19.821c6.595,0,13.152,0,19.729,0C22.736,90.298,22.736,83.709,22.736,77.09z
		 M96.542,3.377c-6.64,0-13.238,0-19.822,0c0,6.603,0,13.171,0,19.729c6.625,0,13.214,0,19.822,0
		C96.542,16.523,96.542,9.965,96.542,3.377z M22.728,23.123c0-6.609,0-13.178,0-19.747c-6.597,0-13.166,0-19.722,0
		c0,6.601,0,13.17,0,19.747C9.589,23.123,16.135,23.123,22.728,23.123z M28.445,23.11c0-1.884,0-3.732,0-5.568
		c-0.975,0-1.917,0-2.851,0c0,1.874,0,3.71,0,5.568C26.549,23.11,27.48,23.11,28.445,23.11z M73.832,23.113c0-0.955,0-1.865,0-2.772
		c-0.966,0-1.896,0-2.846,0c0,0.934,0,1.844,0,2.772C71.944,23.113,72.875,23.113,73.832,23.113z M42.672,8.991
		c0,0.95,0,1.86,0,2.755c0.945,0,1.855,0,2.754,0c0-0.937,0-1.837,0-2.755C44.502,8.991,43.604,8.991,42.672,8.991z M45.419,37.271
		c0-0.945,0-1.855,0-2.755c-0.943,0-1.853,0-2.758,0c0,0.936,0,1.835,0,2.755C43.584,37.271,44.483,37.271,45.419,37.271z"/>
	<path fill-rule="evenodd" clip-rule="evenodd" d="M76.687,88.396c-0.918,0-1.836,0-2.804,0c0-0.927,0-1.838,0-2.798
		c-0.989,0-1.932,0-2.906,0c0-0.979,0-1.909,0-2.877c-0.941,0-1.852,0-2.812,0c0,0.926,0,1.868,0,2.877c-0.979,0-1.907,0-2.837,0
		c0-0.961,0-1.92,0-2.927c-0.967,0-1.883,0-2.799,0c0-2.8,0-5.602,0-8.437c0.973,0,1.891,0,2.809,0c0,0.931,0,1.861,0,2.787
		c1.905,0,3.752,0,5.584,0c0-1.914,0-3.793,0-5.66c-0.938,0-1.838,0-2.789,0c0,0.97,0,1.913,0,2.887c-0.97,0-1.889,0-2.808,0
		c0-0.963,0-1.925,0-2.875c-1.937,0-3.817,0-5.731,0c0,1.906,0,3.776,0,5.649c-0.947,0-1.858,0-2.804,0c0-0.933,0-1.834,0-2.752
		c-0.947,0-1.858,0-2.82,0c0,1.878,0,3.728,0,5.61c-0.953,0-1.853,0-2.768,0c0,0.946,0,1.857,0,2.82c0.94,0,1.853,0,2.798,0
		c0,0.983,0,1.916,0,2.858c1.885,0,3.732,0,5.62,0c0-0.98,0-1.932,0-2.882l-0.013,0.013c0.979-0.012,1.957-0.022,2.935-0.033
		c-0.002,0.973-0.002,1.943-0.002,2.927c0.969,0,1.885,0,2.802,0c0,0.918,0,1.835,0,2.803c-0.942,0-1.854,0-2.792,0
		c0,0.958,0,1.867,0,2.838c1.873,0,3.738,0,5.603,0l-0.014-0.013c0,1.889,0,3.777,0,5.695c-0.934,0-1.846,0-2.792,0
		c0-0.944,0-1.876,0-2.842c-1.916,0-3.796,0-5.729,0c0,0.941,0,1.884,0,2.85c-0.951,0-1.852,0-2.785,0c0-1.884,0-3.764,0-5.679
		c0.903,0,1.804,0,2.741,0c0-0.946,0-1.857,0-2.821c-2.776,0-5.562,0-8.386,0c0-0.951,0-1.853,0-2.804c-0.976,0-1.92,0-2.914,0
		c0-0.994,0-1.938,0-2.916c-1.89,0-3.729,0-5.602,0c0-0.944,0-1.857,0-2.82c0.91,0,1.823,0,2.769,0c0-0.951,0-1.853,0-2.805
		c1.915,0,3.795,0,5.703,0c0-0.951,0-1.852,0-2.805c-0.929,0-1.873,0-2.873,0c0-1.012,0-1.975,0-2.937l-0.013,0.013
		c2.837,0,5.674,0,8.533,0c0-0.987,0-1.907,0-2.826c0.93,0,1.859,0,2.787,0c0-0.963,0-1.873,0-2.801c-0.95,0-1.869,0-2.787,0
		c0-0.93,0-1.86,0-2.836c-1.899,0-3.747,0-5.627,0c0-0.998,0-1.947,0-2.898c2.805,0,5.608,0,8.462,0c0,1.005,0,1.947,0,2.907
		c1.938,0,3.826,0,5.713,0c0.001,0.941,0.001,1.884,0.001,2.825c-0.929,0-1.857,0-2.789,0c0,0.961,0,1.871,0,2.774
		c0.94,0,1.85,0,2.776,0c0-0.951,0-1.869,0-2.787c0.941,0.001,1.884,0.001,2.826,0.002c0,0.931,0,1.86,0,2.812
		c1.942,0,3.83,0,5.718,0c0,0.931,0,1.86,0,2.79c2.839,0,5.623,0,8.4,0c0-0.941,0-1.852,0-2.776c-2.828,0-5.62,0-8.413,0
		c0-0.93,0-1.859,0-2.836c0.977,0,1.888,0,2.815,0c0-0.968,0-1.886,0-2.804c0.941,0,1.884,0,2.825,0c0,0.93,0,1.86,0,2.789
		c1.933,0,3.811,0,5.708,0c0-0.952,0-1.87,0-2.789c0.931,0,1.86,0,2.837,0c0,1.914,0,3.761,0,5.641c0.967,0,1.885,0,2.804,0
		l-0.015-0.013c0,0.918,0,1.838,0,2.804c-1.866,0-3.714,0-5.59,0c0,1.926,0,3.805,0,5.745c2.812,0,5.613,0,8.417,0l-0.014-0.014
		c0,0.941,0,1.883,0,2.824l0.014-0.012c-0.928,0-1.857,0-2.831,0c0,0.979,0,1.895,0,2.81c-0.928,0-1.854,0-2.765,0
		c0,1.021,0,1.961,0,2.894c0.937,0,1.835,0,2.75,0c0-0.984,0-1.944,0.001-2.905c0.948,0.01,1.896,0.019,2.845,0.028l-0.014-0.013
		c0,0.95,0,1.901,0,2.903c0.979,0,1.923,0,2.89,0c0,0.95,0,1.851,0,2.801c-1.873,0-3.753,0-5.704,0c0,1.919,0,3.787,0,5.655
		l0.014-0.014c-0.918,0-1.837,0-2.806,0c0,0.977,0,1.919,0,2.888c-0.96,0-1.87,0-2.804,0c0-1.887,0-3.754,0-5.671
		c0.905,0,1.817,0,2.76,0c0-0.96,0-1.871,0-2.844c-2.841,0-5.674,0-8.509,0L79.5,88.41c0-0.93,0-1.858,0-2.788
		c-0.975,0-1.884,0-2.825,0c0,0.952,0,1.87,0,2.788L76.687,88.396z M82.274,82.662c0-2.822,0-5.608,0-8.383
		c-2.818,0-5.604,0-8.382,0c0,2.812,0,5.586,0,8.383C76.691,82.662,79.466,82.662,82.274,82.662z"/>
	<path fill-rule="evenodd" clip-rule="evenodd" d="M22.765,65.703c-0.005,0.941-0.011,1.884-0.016,2.825l0.014-0.013
		c-1.868,0-3.736,0-5.64,0c0,0.987,0,1.907,0,2.826l0.013-0.014c-1.888,0-3.776,0-5.716,0c0-0.933,0-1.845,0-2.781
		c-0.951,0-1.851,0-2.802,0c0,1.873,0,3.753,0,5.664c-0.962,0-1.874,0-2.818,0c0-4.723,0-9.435,0-14.2c-0.943,0-1.855,0-2.799,0
		c0-0.961,0-1.873,0-2.818c2.782,0,5.558,0,8.385,0c0-0.944,0-1.855,0-2.818c0.962,0,1.874,0,2.82,0c0-0.952,0-1.852,0-2.804
		c0.976,0,1.919,0,2.932,0c0-1.012,0-1.975,0-2.937l-0.014,0.013c1.88,0,3.76,0,5.64,0l-0.013-0.013c0,0.96,0,1.921,0,2.93
		c-0.961,0-1.872,0-2.799,0c0,0.967,0,1.885,0,2.803c-0.93,0-1.861,0-2.787,0c0,1.903,0,3.752,0,5.582c1.883,0,3.73,0,5.565,0
		c0-0.938,0-1.838,0-2.788c-0.938,0-1.85,0-2.792,0c0-0.969,0-1.889,0-2.808c1.865,0,3.731,0,5.645,0c0,0.973,0,1.883,0,2.84
		c1.927,0,3.804,0,5.716,0c0,0.965,0,1.882,0,2.8c-1.897,0-3.794,0-5.697,0c0,0.992,0,1.934,0,2.869c1.909,0,3.787,0,5.684,0
		c0-0.982,0-1.932,0-2.882c0.93,0,1.86,0,2.839,0c0-1.902,0-3.75,0-5.597c1.918,0,3.786,0,5.673,0c0,0.934,0,1.844,0,2.806
		c-0.97,0-1.913,0-2.887,0c0,1.938,0,3.826,0,5.712l0.013-0.013c-0.918,0-1.837,0-2.807,0c0,0.944,0,1.856,0,2.828
		c-3.822,0-7.594,0-11.366,0c0-0.93,0-1.86,0-2.789c-1.9,0-3.747,0-5.586,0c0,0.941,0,1.852,0,2.776
		C19.055,65.703,20.91,65.703,22.765,65.703z M11.43,62.861c0.947,0,1.857,0,2.755,0c0-0.975,0-1.916,0-2.849
		c-0.937,0-1.836,0-2.755,0C11.43,60.968,11.43,61.897,11.43,62.861z"/>
	<path fill-rule="evenodd" clip-rule="evenodd" d="M22.736,77.09c0,6.619,0,13.208,0,19.821c-6.577,0-13.134,0-19.729,0
		c0-6.589,0-13.188,0-19.821C9.56,77.09,16.128,77.09,22.736,77.09z M5.815,79.891c0,4.729,0,9.421,0,14.104
		c4.725,0,9.418,0,14.104,0c0-4.719,0-9.4,0-14.104C15.213,79.891,10.531,79.891,5.815,79.891z"/>
	<path fill-rule="evenodd" clip-rule="evenodd" d="M96.542,3.377c0,6.588,0,13.146,0,19.729c-6.608,0-13.197,0-19.822,0
		c0-6.558,0-13.126,0-19.729C83.304,3.377,89.902,3.377,96.542,3.377z M79.534,6.168c0,4.707,0,9.41,0,14.119
		c4.708,0,9.4,0,14.086,0c0-4.725,0-9.417,0-14.119C88.913,6.168,84.243,6.168,79.534,6.168z"/>
	<path fill-rule="evenodd" clip-rule="evenodd" d="M22.728,23.123c-6.593,0-13.139,0-19.722,0c0-6.577,0-13.146,0-19.747
		c6.557,0,13.125,0,19.722,0C22.728,9.945,22.728,16.514,22.728,23.123z M5.803,20.285c4.73,0,9.423,0,14.103,0
		c0-4.726,0-9.419,0-14.103c-4.719,0-9.4,0-14.103,0C5.803,10.889,5.803,15.57,5.803,20.285z"/>
	<path fill-rule="evenodd" clip-rule="evenodd" d="M88.021,37.286c0,0.95,0,1.899,0,2.896c-1.896,0-3.775,0-5.72,0
		c0,0.978,0,1.907,0,2.837l0.014-0.014c-5.648,0-11.298,0-16.996,0c0,1.911,0,3.76,0,5.596c-1.931,0-3.811,0-5.679,0
		c0-0.937,0-1.837,0-2.788c0.969,0,1.911,0,2.887,0c0-1.908,0-3.764,0-5.622l-0.013,0.013c0.931,0,1.86,0,2.826,0
		c0-1.019,0-1.969,0-2.92l-0.013,0.013c0.931,0,1.86,0,2.842,0c0-0.98,0-1.893,0-2.793c0.951,0,1.852,0,2.802,0
		c0,0.936,0,1.848,0,2.75c0.995,0,1.938,0,2.914,0c0-0.937,0-1.837,0-2.745c0.945,0,1.857,0,2.818,0c0,1.911,0,3.791,0,5.663
		c0.951,0,1.852,0,2.802,0c0-0.967,0-1.91,0-2.903c0.963,0,1.874,0,2.777,0c0-0.952,0-1.852,0-2.802c-0.937,0-1.848,0-2.782,0
		c0-0.971,0-1.89,0-2.809l-0.012,0.013c2.848,0,5.697,0,8.547,0l-0.014-0.013c0,0.943,0,1.884,0,2.827l0.014-0.014
		c-0.93,0-1.859,0-2.788,0c0,0.975,0,1.886,0,2.826c0.952,0,1.87,0,2.788,0L88.021,37.286z"/>
	<path fill-rule="evenodd" clip-rule="evenodd" d="M65.326,14.592c0.006,1.91,0.01,3.821,0.015,5.731c-0.929,0-1.857,0-2.789,0
		c0,0.961,0,1.871,0,2.774c0.94,0,1.85,0,2.776,0c0-0.952,0-1.87,0-2.788c0.918,0,1.836,0,2.803,0c0,2.852,0,5.667,0,8.55
		c0.977,0,1.905,0,2.836,0l-0.014-0.014c0,0.93,0,1.861,0,2.838c-1.901,0-3.748,0-5.626,0c0,1.905,0,3.76,0,5.615l0.013-0.013
		c-0.931,0-1.861,0-2.826,0c0,1.019,0,1.97,0,2.92l0.013-0.013c-0.974,0.004-1.946,0.01-2.921,0.015c0-1.898,0-3.797,0-5.744
		c1.006,0,1.948,0,2.907,0c0-1.906,0-3.761,0-5.617c0.929,0,1.857,0,2.79,0c0-0.992,0-1.933,0-2.867c-0.941,0-1.851,0-2.776,0
		c0,0.983,0,1.932,0,2.88c-0.974,0-1.947,0-2.921,0c0-0.961,0-1.922,0-2.882c-0.961,0-1.871,0-2.8,0c0,0.982,0,1.932,0,2.882
		c-1.88-0.005-3.76-0.01-5.64-0.014l0.013,0.013c0-0.961,0-1.922,0-2.933c0.965,0,1.876,0,2.813,0c0-2.843,0-5.635,0-8.428
		l-0.014,0.014c0.943,0,1.885,0,2.827,0l-0.014-0.014c0,1.867,0,3.734,0,5.601c0.976,0,1.886,0,2.827,0c0-1.889,0-3.745,0-5.601
		l-0.014,0.014c0.962,0,1.924,0,2.921,0c0-1.02,0-1.971,0-2.921l-0.013,0.013c0.941,0,1.884,0,2.826,0L65.326,14.592z"/>
	<path fill-rule="evenodd" clip-rule="evenodd" d="M25.578,45.833c0-0.92,0-1.839,0-2.81c0.964,0,1.908,0,2.875,0
		c0-2.858,0-5.666,0-8.525c-0.937,0-1.88,0-2.853,0c0-0.962,0-1.873,0-2.82c0.945,0,1.877,0,2.843,0c0-0.945,0-1.856,0-2.82
		c-2.817,0-5.635,0-8.476,0c0-0.982,0-1.914,0-2.878c4.694,0,9.387,0,14.109,0c0,0.942,0,1.884,0,2.863c-0.917,0-1.817,0-2.751,0
		c0,1.883,0,3.733,0,5.609c0.902,0,1.803,0,2.755,0c0-0.897,0-1.81,0-2.753c1.932,0,3.812,0,5.719,0c0,0.905,0,1.806,0,2.758
		c-0.931,0-1.875,0-2.888,0c0,1.95,0,3.85,0,5.75l0.014-0.013c-0.942,0.005-1.883,0.01-2.825,0.015c0-0.961,0-1.92,0-2.883
		c-0.96,0-1.87,0-2.773,0c0,0.972,0,1.913,0,2.87c0.952,0,1.87,0,2.787,0c0,3.772,0,7.543,0,11.323c-0.971,0-1.881,0-2.84,0
		c0-1.909,0-3.788,0-5.697c-1.936,0-3.822,0-5.709,0L25.578,45.833z"/>
	<path fill-rule="evenodd" clip-rule="evenodd" d="M34.098,77.062c1.888,0,3.776,0,5.695,0c0,0.932,0,1.844,0,2.789
		c-0.938,0-1.87,0-2.866,0c0,1.932,0,3.829,0,5.728c-0.001,0.001,0.013-0.015,0.013-0.015c-0.947,0.011-1.894,0.022-2.841,0.033
		c0-0.961,0-1.92,0-2.884c-0.96,0-1.87,0-2.773,0c0,0.973,0,1.913,0,2.87c0.952,0,1.87,0,2.787,0c0,1.856,0,3.712,0,5.617
		c-1.882,0-3.73,0-5.628,0c0,1.928,0,3.808,0,5.711c-0.979,0-1.911,0-2.878,0c0-4.716,0-9.437,0-14.209c0.924,0,1.867,0,2.878,0
		c0-0.979,0-1.91,0-2.84l-0.014,0.012c1.869,0,3.736,0,5.64,0c0-0.987,0-1.906,0-2.825L34.098,77.062z"/>
	<path fill-rule="evenodd" clip-rule="evenodd" d="M36.91,40.206c3.788,0,7.574,0,11.361,0.001l-0.012-0.015c0,0.93,0,1.861,0,2.84
		c1.01,0,1.953,0,2.89,0c0,0.951,0,1.85,0,2.799c-0.964,0-1.907,0-2.852,0c0,1.93,0,3.809,0,5.708c0.982,0,1.932,0,2.882,0
		c0,0.942,0,1.886,0,2.828c-1.897,0-3.792,0-5.737,0c0-0.97,0-1.88,0-2.837c-0.958,0-1.87,0-2.812,0c0-0.999,0-1.947,0-2.896
		c0.929,0,1.858,0,2.79,0c0-0.96,0-1.87,0-2.774c-0.94,0-1.851,0-2.777,0c0,0.953,0,1.87,0,2.788c-0.93,0-1.86,0-2.841,0
		c0,0.998,0,1.942,0,2.874c-0.983,0-1.915,0-2.854,0c0-1.906,0-3.786,0-5.717c0.974,0,1.917,0,2.851,0c0-0.952,0-1.851,0-2.802
		c-0.967,0-1.91,0-2.875,0c0-0.97,0-1.889,0-2.809L36.91,40.206z"/>
	<path fill-rule="evenodd" clip-rule="evenodd" d="M42.644,94.038c-0.918,0-1.837,0-2.806,0c0,0.961,0,1.902,0,2.872
		c-0.991,0-1.932,0-2.897,0c0-1.885,0-3.753,0-5.671c0.936,0,1.879,0,2.852,0c0-0.959,0-1.869,0-2.831c-0.944,0-1.886,0-2.854,0
		c0-0.981,0-1.911,0.001-2.844c0,0-0.014,0.016-0.013,0.015c2.824,0,5.649,0,8.507,0c0,0.949,0,1.85,0,2.801
		c0.945,0,1.858,0,2.819,0c0,0.962,0,1.874,0,2.82c0.983,0,1.915,0,2.897,0c0,0.944,0,1.856,0,2.819c0.962,0,1.873,0,2.811,0
		c0,0.981,0,1.913,0,2.882c-3.749,0-7.504,0-11.331,0c0-0.953,0-1.915,0-2.876c0.929,0,1.858,0,2.79,0c0-0.961,0-1.871,0-2.774
		c-0.941,0-1.851,0-2.777,0C42.644,92.203,42.644,93.12,42.644,94.038z"/>
	<path fill-rule="evenodd" clip-rule="evenodd" d="M19.936,34.474c0,0.942,0,1.883,0,2.825l0.014-0.013c-0.93,0-1.861,0-2.827,0
		c0,1.019,0,1.97,0,2.92l0.013-0.013c-0.974,0-1.947,0-2.92,0l0.013,0.013c0-2.826,0-5.651,0-8.529c-1.884,0-3.734,0-5.618,0
		c0-0.951,0-1.852,0-2.804c-1.882,0-3.732,0-5.612,0c0-0.993,0-1.935,0-2.903c4.691,0,9.374,0,14.106,0c0,2.809,0,5.627,0,8.517
		c0.981,0,1.911,0,2.842,0L19.936,34.474z"/>
	<path fill-rule="evenodd" clip-rule="evenodd" d="M5.777,34.487c1.855,0,3.711,0,5.615,0c0,1.896,0,3.774,0,5.719
		c0.977,0,1.908,0,2.837,0l-0.013-0.013c0,0.943,0,1.884,0,2.827l0.013-0.014c-0.918,0-1.837,0-2.801,0c0,2.847,0,5.662,0,8.509
		c-1.892,0-3.738,0-5.637,0c0-0.96,0-1.92,0-2.881l-0.014,0.013c0.919,0,1.838,0,2.788,0c0-2.821,0-5.607,0-8.442
		c-1.851,0-3.699,0-5.571,0c0-0.979,0-1.91,0-2.892c0.905,0,1.816,0,2.797,0c0-0.98,0-1.91,0-2.841L5.777,34.487z"/>
	<path fill-rule="evenodd" clip-rule="evenodd" d="M42.645,71.328c-0.919,0-1.84,0-2.809,0c0,0.979,0,1.921,0,2.889
		c-0.983,0-1.914,0-2.882,0c0-1.873,0-3.753,0-5.685c0.934,0,1.877,0,2.845,0c0-0.95,0-1.851,0-2.802c-0.934,0-1.876,0-2.875,0
		c0-0.981,0-1.911,0-2.843L36.911,62.9c3.774,0,7.55,0,11.348,0c0,2.851,0,5.646,0,8.441l0.013-0.013
		c-0.941-0.001-1.884-0.001-2.827-0.001l0.014,0.014c0-0.93,0-1.858,0-2.787c-0.975,0-1.885,0-2.827,0c0,0.951,0,1.869,0,2.787
		L42.645,71.328z"/>
	<path fill-rule="evenodd" clip-rule="evenodd" d="M31.297,14.591c-1.888,0-3.777,0-5.696,0c0-0.934,0-1.845,0-2.792
		c0.941,0,1.874,0,2.84,0c0-0.946,0-1.857,0-2.821c-0.938,0-1.881,0-2.847,0c0-0.951,0-1.851,0-2.804c0.939,0,1.883,0,2.877,0
		c0-0.961,0-1.874,0-2.808c0.952,0,1.852,0,2.804,0c0,1.85,0,3.699,0,5.577c0.951,0,1.851,0,2.803,0c0-0.897,0-1.81,0-2.753
		c1.932,0,3.812,0,5.719,0c0,0.905,0,1.805,0,2.757c-0.931,0-1.875,0-2.889,0c0,1.92,0,3.788,0,5.656l0.013-0.014
		c-0.941,0-1.883,0.001-2.825,0.001l0.013,0.013c0-0.929,0-1.858,0-2.787c-0.975,0-1.885,0-2.826,0c0,0.951,0,1.869,0,2.787
		L31.297,14.591z"/>
	<path fill-rule="evenodd" clip-rule="evenodd" d="M36.909,14.603c3.788,0.001,7.575,0.001,11.362,0.002l-0.012-0.014
		c0,0.962,0,1.924,0,2.921c1.019,0,1.969,0,2.92,0l-0.013-0.014c0,1.869,0,3.736,0,5.627c-1.006,0-1.957,0-2.907,0l0.013,0.012
		c0-0.929,0-1.858,0-2.787c-0.976,0-1.885,0-2.827,0c0,0.951,0,1.869,0,2.787l0.014-0.012c-0.943,0-1.884,0-2.827,0l0.014,0.012
		c0-0.93,0-1.861,0-2.826c-0.988,0-1.908,0-2.827,0l0.015,0.012c0-0.918,0-1.836,0-2.804c-0.974,0-1.916,0-2.91,0
		c0-1.009,0-1.97,0-2.931L36.909,14.603z"/>
	<path fill-rule="evenodd" clip-rule="evenodd" d="M59.608,6.165c0.949,0,1.899,0,2.9,0c0,0.933,0,1.845,0,2.781
		c0.951,0,1.851,0,2.803,0c0-0.902,0-1.815,0-2.78c0.979,0,1.91,0,2.841,0l-0.014-0.014c0,0.919,0,1.838,0,2.808
		c1.918,0,3.798,0,5.703,0c0,0.951,0,1.851,0,2.801c-1.872,0-3.752,0-5.703,0c0,0.981,0,1.911,0,2.842l0.014-0.014
		c-0.942,0.001-1.885,0.001-2.826,0.002l0.014,0.012c0-0.929,0-1.858,0-2.787c-0.976,0-1.886,0-2.826,0c0,0.951,0,1.869,0,2.787
		l0.013-0.013c-0.974,0-1.946,0-2.921,0l0.014,0.013c0.001-2.818,0.001-5.635,0.001-8.452L59.608,6.165z"/>
	<path fill-rule="evenodd" clip-rule="evenodd" d="M48.271,40.208c0-1.889,0-3.776,0-5.736c0.983,0,1.945,0,2.907,0
		c0,0.929,0,1.858,0,2.79c0.962,0,1.871,0,2.774,0c0-0.941,0-1.851,0-2.777c-0.953,0-1.87,0-2.788,0
		c0.006-0.941,0.01-1.884,0.016-2.826l-0.014,0.013c1.88-0.004,3.76-0.009,5.641-0.013c-0.001,2.85-0.001,5.699-0.001,8.548
		c-2.85-0.004-5.697-0.01-8.547-0.015L48.271,40.208z"/>
	<path fill-rule="evenodd" clip-rule="evenodd" d="M53.979,8.978c0.92,0,1.839,0,2.812,0c0,1.89,0,3.757,0,5.626l0.014-0.013
		c-0.931,0-1.86,0-2.827,0c0,1.02,0,1.97,0,2.921l0.014-0.014c-0.941,0-1.885,0-2.826,0l0.013,0.014c0-0.963,0-1.925,0-2.921
		c-1.019,0-1.97,0-2.92,0l0.012,0.014c0-1.857,0-3.715,0-5.627c0.983,0,1.946,0,2.908,0l-0.013-0.014c0,0.929,0,1.859,0,2.787
		c0.976,0,1.885,0,2.826,0c0-0.951,0-1.869,0-2.787L53.979,8.978z"/>
	<path fill-rule="evenodd" clip-rule="evenodd" d="M51.18,31.659c-1.885,0-3.771,0-5.706,0c0-0.921,0-1.832,0-2.791
		c-0.957,0-1.868,0-2.828,0c0-1.009,0-1.969,0-2.929l-0.015,0.012c0.931,0,1.862,0,2.827,0c0-0.987,0-1.907,0-2.826l-0.014,0.012
		c0.943,0,1.884,0,2.827,0l-0.013-0.012c0,1.899,0,3.799,0,5.733c1.019,0,1.969,0,2.92,0l-0.013-0.013c0,0.942,0,1.884,0,2.827
		L51.18,31.659z"/>
	<path fill-rule="evenodd" clip-rule="evenodd" d="M28.484,74.248c0-1.887,0-3.774,0-5.694c1.867,0,3.715,0,5.613,0
		c0,2.838,0,5.673,0,8.509l0.013-0.013c-0.929,0-1.858,0-2.836,0c0-0.962,0-1.873,0-2.813c-0.967,0-1.885,0-2.803,0L28.484,74.248z"
		/>
	<path fill-rule="evenodd" clip-rule="evenodd" d="M88.022,28.86c0.92,0,1.839,0,2.808,0c0-0.977,0-1.92,0-2.888
		c0.949,0,1.85,0,2.8,0c0,0.929,0,1.872,0,2.865c0.991,0,1.934,0,2.904,0c0,0.961,0,1.871,0,2.816c-0.946,0-1.878,0-2.858,0
		c0,0.943,0,1.855,0,2.819c-0.979,0-1.91,0-2.841,0l0.014,0.015c0-0.932,0-1.862,0-2.827c-0.988,0-1.907,0-2.827,0l0.014,0.013
		c0-0.941,0.001-1.883,0.001-2.826L88.022,28.86z"/>
	<path fill-rule="evenodd" clip-rule="evenodd" d="M17.137,48.634c-0.951,0-1.902,0-2.908,0c0-1.891,0-3.76,0-5.627l-0.013,0.014
		c0.961,0,1.923,0,2.92,0c0-0.988,0-1.907,0-2.827l-0.013,0.013c0.942,0,1.884,0,2.827,0l-0.014-0.012c0,0.918,0,1.835,0,2.802
		c0.942,0,1.853,0,2.814,0c0,0.978,0,1.908,0,2.837l0.014-0.014c-1.868,0-3.736,0-5.64,0c0,0.988,0,1.907,0,2.827L17.137,48.634z"/>
	<path fill-rule="evenodd" clip-rule="evenodd" d="M42.646,25.939c-0.92,0-1.839,0-2.81,0c0,0.978,0,1.92,0,2.888
		c-0.983,0-1.915,0-2.882,0c0-2.811,0-5.628,0-8.502c0.954,0,1.916,0,2.878,0l-0.015-0.012c0,0.93,0,1.861,0,2.826
		c0.989,0,1.908,0,2.827,0l-0.014-0.012c0,0.941,0,1.884,0,2.826L42.646,25.939z"/>
	<path fill-rule="evenodd" clip-rule="evenodd" d="M90.835,59.994c0.919,0,1.837,0,2.805,0c0,0.96,0,1.902,0,2.894
		c0.99,0,1.933,0,2.897,0c0,0.948,0,1.847,0,2.796c-0.931,0-1.874,0-2.864,0c0,0.958,0,1.869,0,2.832c-0.979,0-1.908,0-2.839,0
		l0.015,0.013c0-2.85,0-5.698,0-8.548L90.835,59.994z"/>
	<path fill-rule="evenodd" clip-rule="evenodd" d="M90.837,48.648c0.919,0,1.838,0,2.808,0c0,0.963,0,1.907,0,2.883
		c0.981,0,1.913,0,2.881,0c0,0.943,0,1.855,0,2.818c-0.933,0-1.875,0-2.852,0c0,0.949,0,1.85,0,2.835c-0.962,0-1.892,0-2.82-0.002
		c-0.001,0,0.015,0.014,0.015,0.014c-0.009-1.31-0.022-2.618-0.025-3.929c-0.003-1.544,0.005-3.089,0.007-4.633L90.837,48.648z"/>
	<path fill-rule="evenodd" clip-rule="evenodd" d="M76.654,91.194c0,1.899,0,3.799,0,5.721c-1.888,0-3.755,0-5.658,0
		c0-0.939,0-1.881,0-2.874c0.936,0,1.879,0,2.854,0c0-0.951,0-1.85,0-2.834c0.961,0,1.89,0,2.819,0.001L76.654,91.194z"/>
	<path fill-rule="evenodd" clip-rule="evenodd" d="M90.868,45.849c0-1.869,0-3.736,0-5.627c1.888,0,3.756,0,5.659,0
		c0,0.909,0,1.819,0,2.781c-0.937,0-1.88,0-2.854,0c0,0.95,0,1.85,0,2.833c-0.962,0-1.891,0-2.819,0
		C90.853,45.834,90.868,45.849,90.868,45.849z"/>
	<path fill-rule="evenodd" clip-rule="evenodd" d="M34.098,14.591c0,2.825,0,5.648,0,8.507c-0.928,0-1.838,0-2.801,0
		c0-2.836,0-5.671,0-8.507l-0.013,0.013c0.942,0,1.884,0,2.826,0L34.098,14.591z"/>
	<path fill-rule="evenodd" clip-rule="evenodd" d="M93.661,77.064c0-1.887,0-3.772,0-5.693c0.955,0,1.896,0,2.87,0
		c0,1.87,0,3.748,0,5.68c-0.962,0-1.923,0-2.884,0L93.661,77.064z"/>
	<path fill-rule="evenodd" clip-rule="evenodd" d="M70.967,28.86c0-0.95,0-1.9,0-2.883c1.897,0,3.775,0,5.707,0
		c0,0.959,0,1.92,0,2.882l0.014-0.013c-1.912,0-3.823,0-5.734,0L70.967,28.86z"/>
	<path fill-rule="evenodd" clip-rule="evenodd" d="M22.75,71.329c0,0.949,0,1.899,0,2.881c-1.867,0-3.713,0-5.613,0
		c0-0.959,0-1.921,0-2.882l-0.013,0.014c1.88,0,3.76,0,5.64,0L22.75,71.329z"/>
	<path fill-rule="evenodd" clip-rule="evenodd" d="M28.484,79.863c-0.95,0-1.9,0-2.882,0c0-1.866,0-3.714,0-5.615
		c0.959,0,1.921,0,2.882,0l-0.014-0.012c0,1.879,0,3.759,0,5.639L28.484,79.863z"/>
	<path fill-rule="evenodd" clip-rule="evenodd" d="M28.445,23.11c-0.964,0-1.896,0-2.851,0c0-1.857,0-3.694,0-5.568
		c0.933,0,1.875,0,2.851,0C28.445,19.378,28.445,21.226,28.445,23.11z"/>
	<path fill-rule="evenodd" clip-rule="evenodd" d="M68.152,6.166c0-0.918,0-1.837,0-2.789c1.897,0,3.775,0,5.684,0
		c0,0.905,0,1.815,0,2.775c-1.902,0-3.8,0-5.697,0L68.152,6.166z"/>
	<path fill-rule="evenodd" clip-rule="evenodd" d="M51.194,6.131c-1.898,0-3.795,0-5.718,0c0-0.914,0-1.812,0-2.75
		c1.869,0,3.746,0,5.705,0c0,0.909,0,1.836-0.001,2.766L51.194,6.131z"/>
	<path fill-rule="evenodd" clip-rule="evenodd" d="M85.208,51.555c0.921,0,1.84,0,2.812,0c0,1.89,0,3.758,0,5.626l0.015-0.014
		c-0.932,0-1.862,0-2.813,0c0-1.912,0-3.77,0-5.626L85.208,51.555z"/>
	<path fill-rule="evenodd" clip-rule="evenodd" d="M82.302,48.647c0.95,0,1.901,0,2.906,0c0,0.983,0,1.946,0,2.908l0.014-0.014
		c-0.962,0-1.924,0-2.907,0c0-1.006,0-1.957,0-2.907L82.302,48.647z"/>
	<path fill-rule="evenodd" clip-rule="evenodd" d="M45.445,71.328c0,0.949,0,1.899,0,2.881c-0.928,0-1.838,0-2.8,0
		c0-0.96,0-1.92,0-2.881l-0.014,0.014c0.943,0,1.884,0,2.827,0L45.445,71.328z"/>
	<path fill-rule="evenodd" clip-rule="evenodd" d="M93.647,79.875c0.95,0,1.899,0,2.882,0c0,0.929,0,1.839,0,2.802
		c-0.959,0-1.921,0-2.882,0l0.014,0.013c0-0.942,0-1.885,0-2.826L93.647,79.875z"/>
	<path fill-rule="evenodd" clip-rule="evenodd" d="M90.833,94.036c0.918,0,1.836,0,2.788,0c0,0.957,0,1.897,0,2.87
		c-0.903,0-1.812,0-2.774,0c0-0.963,0-1.924,0-2.884L90.833,94.036z"/>
	<path fill-rule="evenodd" clip-rule="evenodd" d="M88.036,28.847c-0.918,0-1.835,0-2.786,0c0-0.958,0-1.898,0-2.871
		c0.903,0,1.812,0,2.772,0c0,0.963,0,1.923,0,2.884L88.036,28.847z"/>
	<path fill-rule="evenodd" clip-rule="evenodd" d="M79.503,28.858c0-0.95,0-1.898,0-2.88c0.924,0,1.834,0,2.774,0
		c0,0.936,0,1.876,0,2.866c-0.932,0-1.86,0-2.788,0L79.503,28.858z"/>
	<path fill-rule="evenodd" clip-rule="evenodd" d="M73.832,23.113c-0.957,0-1.888,0-2.846,0c0-0.928,0-1.838,0-2.772
		c0.95,0,1.88,0,2.846,0C73.832,21.248,73.832,22.158,73.832,23.113z"/>
	<path fill-rule="evenodd" clip-rule="evenodd" d="M68.139,14.603c0.918,0,1.835,0,2.788,0c0,0.957,0,1.897,0,2.871
		c-0.904,0-1.814,0-2.774,0c0-0.963,0-1.923,0-2.884L68.139,14.603z"/>
	<path fill-rule="evenodd" clip-rule="evenodd" d="M56.792,14.604c0.943,0,1.886,0,2.827,0l-0.014-0.013c0,0.974,0,1.947,0,2.921
		l0.014-0.014c-0.942,0-1.884,0-2.827,0l0.014,0.014c0-0.974,0-1.947,0-2.921L56.792,14.604z"/>
	<path fill-rule="evenodd" clip-rule="evenodd" d="M19.936,37.299c0.919,0,1.837,0,2.788,0c0,0.959,0,1.901,0,2.895
		c-0.928,0-1.858,0-2.788,0l0.014,0.012c0-0.973,0-1.947,0-2.92L19.936,37.299z"/>
	<path fill-rule="evenodd" clip-rule="evenodd" d="M82.301,43.02c0.949,0,1.898,0,2.881,0c0,0.928,0,1.837,0,2.799
		c-0.959,0-1.919,0-2.88,0l0.013,0.015c0-0.943,0-1.884,0-2.827L82.301,43.02z"/>
	<path fill-rule="evenodd" clip-rule="evenodd" d="M51.179,8.978c0.004-0.948,0.01-1.896,0.016-2.846
		c0-0.001-0.014,0.015-0.014,0.015c0.917-0.001,1.833-0.001,2.799-0.001c0,0.975,0,1.903,0,2.833l0.013-0.014
		c-0.941,0-1.885,0-2.826,0L51.179,8.978z"/>
	<path fill-rule="evenodd" clip-rule="evenodd" d="M42.672,8.991c0.932,0,1.831,0,2.754,0c0,0.918,0,1.818,0,2.755
		c-0.899,0-1.809,0-2.754,0C42.672,10.851,42.672,9.941,42.672,8.991z"/>
	<path fill-rule="evenodd" clip-rule="evenodd" d="M79.488,88.396c0,0.917,0,1.833,0,2.8c-0.952,0-1.893,0-2.833,0
		c-0.001-0.001,0.015,0.013,0.015,0.013c0.006-0.938,0.012-1.875,0.017-2.812l-0.012,0.015c0.941,0,1.884,0,2.825,0L79.488,88.396z"
		/>
	<path fill-rule="evenodd" clip-rule="evenodd" d="M68.152,91.225c0-0.918,0-1.835,0-2.787c0.927,0,1.836,0,2.776,0
		c0,0.904,0,1.813,0,2.774c-0.932,0-1.861,0-2.79,0L68.152,91.225z"/>
	<path fill-rule="evenodd" clip-rule="evenodd" d="M90.85,48.635c-0.916,0-1.832,0-2.785,0c0-0.92,0-1.828,0-2.787
		c0.923,0,1.861,0,2.803,0c0.001,0.001-0.015-0.014-0.014-0.012c-0.006,0.937-0.012,1.875-0.017,2.812L90.85,48.635z"/>
	<path fill-rule="evenodd" clip-rule="evenodd" d="M82.302,45.819c0,0.943,0,1.885,0,2.828l0.013-0.013c-0.93,0-1.859,0-2.787,0
		c0-0.963,0-1.872,0-2.8c0.95,0,1.868,0,2.787,0L82.302,45.819z"/>
	<path fill-rule="evenodd" clip-rule="evenodd" d="M22.75,45.833c0.942,0,1.885,0,2.828,0l-0.014-0.014c0,0.931,0,1.862,0,2.814
		c-0.975,0-1.894,0-2.813,0l0.013,0.013c0-0.943,0-1.884,0-2.827L22.75,45.833z"/>
	<path fill-rule="evenodd" clip-rule="evenodd" d="M5.791,48.635c-0.918,0-1.835,0-2.787,0c0-0.926,0-1.836,0-2.777
		c0.903,0,1.812,0,2.773,0c0,0.932,0,1.861,0,2.79L5.791,48.635z"/>
	<path fill-rule="evenodd" clip-rule="evenodd" d="M59.62,6.152c-0.917,0-1.835,0-2.786,0c0-0.926,0-1.835,0-2.777
		c0.903,0,1.812,0,2.773,0c0,0.932,0,1.861,0.001,2.79L59.62,6.152z"/>
	<path fill-rule="evenodd" clip-rule="evenodd" d="M88.021,57.181c0.949,0.005,1.897,0.01,2.847,0.015
		c0.001,0.001-0.015-0.013-0.014-0.013c-0.006,0.938-0.013,1.876-0.019,2.812l0.014-0.014c-0.932,0-1.861,0-2.813,0
		c0-0.975,0-1.894,0-2.813L88.021,57.181z"/>
	<path fill-rule="evenodd" clip-rule="evenodd" d="M90.835,34.472c0,0.92,0,1.839,0,2.814c-0.952,0-1.883,0-2.814,0l0.015,0.013
		c0-0.942,0-1.885,0-2.826l-0.014,0.014c0.943,0,1.885,0,2.827,0L90.835,34.472z"/>
	<path fill-rule="evenodd" clip-rule="evenodd" d="M22.75,68.528c0.918,0,1.836,0,2.788,0c0,0.928,0,1.838,0,2.801
		c-0.929,0-1.858,0-2.788,0l0.014,0.013c0-0.941,0-1.885,0-2.826L22.75,68.528z"/>
	<path fill-rule="evenodd" clip-rule="evenodd" d="M45.419,37.271c-0.936,0-1.835,0-2.758,0c0-0.92,0-1.819,0-2.755
		c0.905,0,1.815,0,2.758,0C45.419,35.416,45.419,36.326,45.419,37.271z"/>
	<path fill-rule="evenodd" clip-rule="evenodd" d="M19.949,34.487c0-0.918,0-1.835,0-2.788c0.926,0,1.835,0,2.776,0
		c0,0.905,0,1.814,0,2.774c-0.931,0-1.861,0-2.79,0L19.949,34.487z"/>
	<path fill-rule="evenodd" clip-rule="evenodd" d="M5.791,34.474c-0.918,0-1.835,0-2.787,0c0-0.926,0-1.836,0-2.776
		c0.903,0,1.812,0,2.773,0c0,0.932,0,1.861,0,2.79L5.791,34.474z"/>
	<path fill-rule="evenodd" clip-rule="evenodd" d="M79.489,28.844c-0.001,0.943-0.001,1.886-0.001,2.828l0.012-0.013
		c-0.93,0-1.86,0-2.812,0c0-0.975,0-1.895,0-2.813l-0.014,0.013c0.942-0.001,1.885-0.001,2.829-0.001L79.489,28.844z"/>
	<path fill-rule="evenodd" clip-rule="evenodd" fill="#FFFFFF" d="M88.035,57.167c0,0.92,0,1.839,0,2.813c0.952,0,1.882,0,2.813,0
		c0,2.85,0,5.698,0,8.548c-0.919,0-1.837,0-2.804,0c0-1.88,0-3.727,0-5.641c-0.977,0-1.906,0-2.837,0l0.014,0.013
		c0-0.96,0-1.921,0-2.88c-1.944,0-3.822,0-5.733,0c0,0.981,0,1.931,0,2.88l0.012-0.013c-0.941,0-1.884,0-2.825,0l0.013,0.013
		c0-0.961,0-1.923,0-2.934c-1.949,0-3.829,0-5.743,0c0-0.951,0-1.853,0-2.803c-0.945,0-1.857,0-2.806,0c0-0.97,0-1.889,0-2.808
		c0.932,0,1.861,0,2.842,0c0-0.967,0-1.879,0-2.785c0.981,0,1.912,0,2.894,0c0,0.934,0,1.846,0,2.757c1.898,0,3.746,0,5.583,0
		c0-0.944,0-1.854,0-2.798c-0.938,0-1.838,0-2.787,0c0-0.977,0-1.919,0-2.856c-2.866,0-5.684,0-8.518,0c0,1.92,0,3.808,0,5.695
		c-0.93,0-1.859,0-2.836,0c0,0.961,0,1.871,0,2.798c-0.967,0-1.885,0-2.803,0l0.013,0.014c0-1.868,0-3.736,0-5.64
		c-1.958,0-3.846,0-5.734,0l0.014,0.013c0-0.961,0-1.921,0-2.881c-1.913,0-3.76,0-5.64,0c0,0.982,0,1.932,0,2.881l0.013-0.014
		c-0.95,0-1.9,0-2.882,0c0-1.899,0-3.777,0-5.708c0.945,0,1.888,0,2.852,0c0-0.95,0-1.849,0-2.799c-0.937,0-1.88,0-2.89,0
		c0-0.979,0-1.91,0-2.84c2.85,0.004,5.697,0.01,8.547,0.015l-0.014-0.015c-0.001,0.937-0.003,1.874-0.004,2.812
		c-0.928,0-1.854,0-2.765,0c0,0.988,0,1.897,0,2.799c0.937,0,1.834,0,2.75,0c0-0.953,0-1.882,0-2.812c0.94,0,1.881,0,2.846,0
		c0-0.966,0-1.882,0-2.799l-0.014,0.015c0.975-0.004,1.947-0.01,2.921-0.015c0,1.857,0,3.714,0,5.622c-0.976,0-1.918,0-2.887,0
		c0,0.951,0,1.851,0,2.788c1.868,0,3.748,0,5.679,0c0-1.836,0-3.685,0-5.596c5.698,0,11.348,0,16.996,0c0,0.943,0,1.884,0,2.827
		c-0.919,0-1.837,0-2.787,0c0,0.928,0,1.837,0,2.8c0.928,0,1.857,0,2.787,0c0,0.95,0,1.901,0,2.907c0.983,0,1.945,0,2.907,0
		c0,1.856,0,3.714,0,5.626C86.173,57.167,87.104,57.167,88.035,57.167z"/>
	<path fill-rule="evenodd" clip-rule="evenodd" fill="#FFFFFF" d="M22.75,48.634c0.919,0,1.839,0,2.813,0c0-0.952,0-1.883,0-2.814
		c1.887,0,3.773,0,5.709,0c0,1.909,0,3.788,0,5.697c0.958,0,1.869,0,2.84,0c0-3.78,0-7.551,0-11.323l-0.014,0.014
		c0.942-0.004,1.883-0.009,2.825-0.015c0,0.92,0,1.839,0,2.809c0.965,0,1.908,0,2.875,0c0,0.952,0,1.851,0,2.802
		c-0.934,0-1.876,0-2.851,0c0,1.932,0,3.812,0,5.717c0.939,0,1.871,0,2.854,0c0-0.932,0-1.876,0-2.874c0.981,0,1.911,0,2.841,0
		l-0.013-0.013c0,0.949,0,1.897,0,2.896c0.941,0,1.853,0,2.812,0c0,0.957,0,1.867,0,2.837c1.944,0,3.84,0,5.737,0l-0.013-0.015
		c0,0.943,0,1.885,0,2.827l0.013-0.014c-0.961,0-1.921,0-2.881,0c0,0.976,0,1.886,0,2.827c0.982,0,1.931,0,2.881,0l-0.014-0.014
		c0,0.951,0,1.9,0,2.898c1.88,0,3.728,0,5.627,0c0,0.976,0,1.906,0,2.836l0.014-0.013c-0.929,0-1.858,0-2.786,0
		c0,0.976,0,1.886,0,2.826c0.95,0,1.868,0,2.786,0l-0.014-0.013c0,0.919,0,1.839,0,2.826c-2.859,0-5.696,0-8.533,0
		c0-2.795,0-5.591,0-8.441c-3.798,0-7.573,0-11.348,0c0-1.886,0-3.773,0-5.712c0.974,0,1.917,0,2.887,0c0-0.962,0-1.872,0-2.806
		c-1.888,0-3.755,0-5.673,0c0,1.847,0,3.694,0,5.597c-0.979,0-1.91,0-2.839,0l0.013,0.013c0-0.918,0-1.835,0-2.8
		c-1.912,0-3.789,0-5.716,0c0-0.957,0-1.867,0-2.84c-1.914,0-3.78,0-5.645,0l0.013,0.014c0-0.918,0-1.836,0-2.803
		c0.928,0,1.838,0,2.799,0C22.75,50.555,22.75,49.594,22.75,48.634z M42.658,59.964c0.952,0,1.851,0,2.766,0
		c0-0.935,0-1.844,0-2.758c-0.938,0-1.849,0-2.766,0C42.658,58.138,42.658,59.036,42.658,59.964z"/>
	<path fill-rule="evenodd" clip-rule="evenodd" fill="#FFFFFF" d="M59.62,82.678c0,0.95,0,1.901,0,2.882c-1.888,0-3.735,0-5.62,0
		c0-0.942,0-1.875,0-2.858c-0.945,0-1.857,0-2.798,0c0-0.963,0-1.874,0-2.82c0.915,0,1.814,0,2.768,0c0-1.883,0-3.732,0-5.61
		c0.962,0,1.873,0,2.82,0c0,0.918,0,1.819,0,2.752c0.945,0,1.856,0,2.804,0c0-1.873,0-3.743,0-5.649c1.914,0,3.795,0,5.731,0
		c0,0.95,0,1.912,0,2.875l0.013-0.014c-0.918,0-1.836,0-2.809,0c0,2.835,0,5.637,0,8.437c-0.001,0.001,0.013-0.015,0.013-0.015
		c-0.978,0.012-1.956,0.022-2.935,0.034c0-0.929,0-1.857,0-2.79c-0.961,0-1.87,0-2.773,0c0,0.941,0,1.851,0,2.777
		C57.785,82.678,58.703,82.678,59.62,82.678z"/>
	<path fill-rule="evenodd" clip-rule="evenodd" fill="#FFFFFF" d="M82.274,82.662c-2.809,0-5.583,0-8.382,0c0-2.797,0-5.571,0-8.383
		c2.777,0,5.563,0,8.382,0C82.274,77.054,82.274,79.84,82.274,82.662z M79.472,79.851c0-0.95,0-1.85,0-2.768
		c-0.933,0-1.844,0-2.761,0c0,0.938,0,1.847,0,2.768C77.642,79.851,78.541,79.851,79.472,79.851z"/>
	<path fill-rule="evenodd" clip-rule="evenodd" fill="#FFFFFF" d="M65.34,62.888c-1.887,0-3.774,0-5.713,0c0-0.96,0-1.902,0-2.907
		c-2.854,0-5.657,0-8.462,0l0.014,0.014c0-0.942,0-1.884,0-2.827l-0.013,0.014c1.868,0,3.736,0,5.64,0c0-0.987,0-1.906,0-2.827
		l-0.014,0.014c0.93,0,1.86,0,2.838,0c0,0.962,0,1.873,0,2.813c0.998,0,1.947,0,2.896,0l-0.013-0.014c0,0.93,0,1.86,0,2.838
		c0.975,0,1.886,0,2.813,0c0,0.998,0,1.947,0,2.896L65.34,62.888z"/>
	<path fill-rule="evenodd" clip-rule="evenodd" fill="#FFFFFF" d="M73.872,68.514c-1.888,0-3.775,0-5.718,0c0-0.951,0-1.881,0-2.812
		l-0.014,0.013c0.93,0,1.858,0,2.838,0c0-0.977,0-1.888,0-2.814c1.937,0,3.823,0,5.709,0l-0.013-0.013c0,0.918,0,1.836,0,2.804
		c-0.928,0-1.839,0-2.815,0c0,0.977,0,1.906,0,2.836L73.872,68.514z"/>
	<path fill-rule="evenodd" clip-rule="evenodd" fill="#FFFFFF" d="M65.325,74.248c0.919,0,1.838,0,2.808,0c0-0.974,0-1.917,0-2.887
		c0.951,0,1.851,0,2.789,0c0,1.867,0,3.746,0,5.66c-1.832,0-3.679,0-5.584,0c0-0.926,0-1.856,0-2.787L65.325,74.248z"/>
	<path fill-rule="evenodd" clip-rule="evenodd" fill="#FFFFFF" d="M73.859,68.527c2.793,0,5.585,0,8.413,0c0,0.925,0,1.835,0,2.776
		c-2.777,0-5.562,0-8.4,0c0-0.93,0-1.859,0-2.79L73.859,68.527z"/>
	<path fill-rule="evenodd" clip-rule="evenodd" fill="#FFFFFF" d="M85.208,62.888c0,0.919,0,1.837,0,2.789c-1.897,0-3.775,0-5.708,0
		c0-0.929,0-1.859,0-2.789L79.488,62.9c1.911,0,3.822,0,5.733,0L85.208,62.888z"/>
	<path fill-rule="evenodd" clip-rule="evenodd" fill="#FFFFFF" d="M65.342,85.584c-0.917,0-1.833,0-2.802,0
		c0-0.983,0-1.954,0.002-2.927c0-0.001-0.014,0.015-0.013,0.014c0.916,0,1.832,0,2.799,0c0,1.007,0,1.966,0,2.927L65.342,85.584z"/>
	<path fill-rule="evenodd" clip-rule="evenodd" fill="#FFFFFF" d="M90.815,82.661c0,0.961,0,1.921,0,2.905c-0.915,0-1.813,0-2.75,0
		c0-0.933,0-1.873,0-2.894c0.91,0,1.837,0,2.766,0C90.831,82.675,90.815,82.661,90.815,82.661z"/>
	<path fill-rule="evenodd" clip-rule="evenodd" fill="#FFFFFF" d="M93.661,79.863c0,0.941,0,1.884,0,2.826
		c-0.948-0.01-1.896-0.019-2.845-0.028c-0.001,0,0.015,0.014,0.015,0.012c-0.001-0.915-0.001-1.831-0.001-2.81
		C91.804,79.863,92.733,79.863,93.661,79.863z"/>
	<path fill-rule="evenodd" clip-rule="evenodd" fill="#FFFFFF" d="M79.5,88.41c-0.941,0-1.884,0-2.825,0c0-0.918,0-1.836,0-2.788
		c0.941,0,1.851,0,2.825,0C79.5,86.552,79.5,87.48,79.5,88.41z"/>
	<path fill-rule="evenodd" clip-rule="evenodd" fill="#FFFFFF" d="M68.154,65.702c-0.942-0.001-1.885-0.001-2.826-0.002l0.013,0.013
		c0-0.941,0-1.884-0.001-2.825L65.327,62.9c0.931,0,1.86,0,2.813,0c0,0.976,0,1.895,0,2.814L68.154,65.702z"/>
	<path fill-rule="evenodd" clip-rule="evenodd" fill="#FFFFFF" d="M56.792,65.715c0.918,0,1.837,0,2.787,0c0,0.928,0,1.838,0,2.801
		c-0.928,0-1.857,0-2.787,0l0.014,0.013c0-0.941,0-1.885,0-2.826L56.792,65.715z"/>
	<path fill-rule="evenodd" clip-rule="evenodd" fill="#FFFFFF" d="M65.328,65.7c0,0.918,0,1.836,0,2.787c-0.927,0-1.836,0-2.776,0
		c0-0.903,0-1.813,0-2.774c0.932,0,1.86,0,2.789,0L65.328,65.7z"/>
	<path fill-rule="evenodd" clip-rule="evenodd" fill="#FFFFFF" d="M19.938,54.353c0,0.919,0,1.839,0,2.808c0.942,0,1.854,0,2.792,0
		c0,0.95,0,1.85,0,2.788c-1.835,0-3.683,0-5.565,0c0-1.83,0-3.679,0-5.582c0.925,0,1.856,0,2.787,0L19.938,54.353z"/>
	<path fill-rule="evenodd" clip-rule="evenodd" fill="#FFFFFF" d="M31.285,59.979c0,0.95,0,1.899,0,2.882c-1.897,0-3.775,0-5.684,0
		c0-0.936,0-1.877,0-2.869c1.902,0,3.799,0,5.697,0L31.285,59.979z"/>
	<path fill-rule="evenodd" clip-rule="evenodd" fill="#FFFFFF" d="M22.763,45.82c0,0.943,0,1.884,0,2.827c-1.88,0-3.76,0-5.64,0
		c0-0.92,0-1.839,0-2.827C19.027,45.82,20.895,45.82,22.763,45.82z"/>
	<path fill-rule="evenodd" clip-rule="evenodd" fill="#FFFFFF" d="M22.765,65.703c-1.855,0-3.71,0-5.6,0c0-0.925,0-1.835,0-2.776
		c1.84,0,3.687,0,5.586,0c0,0.929,0,1.859,0,2.789L22.765,65.703z"/>
	<path fill-rule="evenodd" clip-rule="evenodd" fill="#FFFFFF" d="M22.763,68.516c0,0.941,0,1.885,0,2.826c-1.88,0-3.76,0-5.64,0
		c0-0.919,0-1.839,0-2.826C19.027,68.516,20.895,68.516,22.763,68.516z"/>
	<path fill-rule="evenodd" clip-rule="evenodd" fill="#FFFFFF" d="M11.43,62.861c0-0.964,0-1.894,0-2.849c0.919,0,1.819,0,2.755,0
		c0,0.933,0,1.874,0,2.849C13.288,62.861,12.377,62.861,11.43,62.861z"/>
	<path fill-rule="evenodd" clip-rule="evenodd" fill="#FFFFFF" d="M5.815,79.891c4.716,0,9.398,0,14.104,0c0,4.703,0,9.385,0,14.104
		c-4.686,0-9.379,0-14.104,0C5.815,89.312,5.815,84.619,5.815,79.891z M8.629,82.703c0,2.855,0,5.672,0,8.476
		c2.851,0,5.668,0,8.475,0c0-2.844,0-5.649,0-8.476C14.273,82.703,11.467,82.703,8.629,82.703z"/>
	<path fill-rule="evenodd" clip-rule="evenodd" fill="#FFFFFF" d="M79.534,6.168c4.709,0,9.379,0,14.086,0c0,4.702,0,9.395,0,14.119
		c-4.686,0-9.378,0-14.086,0C79.534,15.578,79.534,10.875,79.534,6.168z M82.33,17.478c2.861,0,5.667,0,8.48,0
		c0-2.843,0-5.66,0-8.473c-2.847,0-5.664,0-8.48,0C82.33,11.846,82.33,14.652,82.33,17.478z"/>
	<path fill-rule="evenodd" clip-rule="evenodd" fill="#FFFFFF" d="M5.803,20.285c0-4.715,0-9.396,0-14.103c4.703,0,9.384,0,14.103,0
		c0,4.684,0,9.377,0,14.103C15.226,20.285,10.533,20.285,5.803,20.285z M17.096,17.484c0-2.855,0-5.672,0-8.476
		c-2.851,0-5.667,0-8.475,0c0,2.844,0,5.649,0,8.476C11.452,17.484,14.258,17.484,17.096,17.484z"/>
	<path fill-rule="evenodd" clip-rule="evenodd" fill="#FFFFFF" d="M76.688,28.846c0,0.919,0,1.838,0,2.813c0.952,0,1.883,0,2.812,0
		c0,0.919,0,1.838,0,2.809c0.935,0,1.846,0,2.782,0c0,0.951,0,1.851,0,2.802c-0.903,0-1.814,0-2.777,0c0,0.993,0,1.936,0,2.903
		c-0.95,0-1.851,0-2.802,0c0-1.872,0-3.752,0-5.663c-0.961,0-1.873,0-2.818,0c0,0.908,0,1.808,0,2.745c-0.977,0-1.919,0-2.914,0
		c0-0.902,0-1.814,0-2.75c-0.95,0-1.851,0-2.802,0c0,0.901,0,1.813,0,2.793c-0.981,0-1.911,0-2.842,0c0-1.855,0-3.71,0-5.615
		c1.878,0,3.725,0,5.626,0c0-0.977,0-1.908,0-2.838C72.864,28.846,74.775,28.846,76.688,28.846z"/>
	<path fill-rule="evenodd" clip-rule="evenodd" fill="#FFFFFF" d="M62.514,40.206c0-0.95,0-1.901,0-2.92c0.965,0,1.896,0,2.826,0
		c0,0.951,0,1.901,0,2.92C64.374,40.206,63.444,40.206,62.514,40.206z"/>
	<path fill-rule="evenodd" clip-rule="evenodd" fill="#FFFFFF" d="M88.035,34.473c0,0.941,0,1.884,0,2.826c-0.918,0-1.836,0-2.788,0
		c0-0.94,0-1.851,0-2.826C86.176,34.473,87.105,34.473,88.035,34.473z"/>
	<path fill-rule="evenodd" clip-rule="evenodd" fill="#FFFFFF" d="M90.849,34.486c-0.942,0-1.884,0-2.827,0c0-0.943,0-1.884,0-2.827
		c0.92,0,1.839,0,2.827,0C90.849,32.624,90.849,33.555,90.849,34.486z"/>
	<path fill-rule="evenodd" clip-rule="evenodd" fill="#FFFFFF" d="M51.179,28.859c-0.951,0-1.901,0-2.92,0c0-1.935,0-3.834,0-5.733
		c0.95,0,1.901,0,2.907,0c0-1.891,0-3.759,0-5.627c0.941,0,1.885,0,2.826,0c0,2.792,0,5.585,0,8.428c-0.938,0-1.849,0-2.813,0
		C51.179,26.937,51.179,27.897,51.179,28.859z"/>
	<path fill-rule="evenodd" clip-rule="evenodd" fill="#FFFFFF" d="M56.806,40.208c0-2.85,0-5.699,0.001-8.548l-0.015,0.013
		c0.932,0,1.862,0,2.827,0c0-0.988,0-1.908,0-2.827l-0.014,0.014c0.974,0,1.947,0,2.921,0l-0.014-0.013c0,1.856,0,3.711,0,5.617
		c-0.959,0-1.901,0-2.907,0c0,1.947,0,3.846,0,5.744l0.014-0.015c-0.942,0-1.884,0-2.827,0L56.806,40.208z"/>
	<path fill-rule="evenodd" clip-rule="evenodd" fill="#FFFFFF" d="M51.166,31.672c0-0.942,0-1.884,0-2.827
		c1.88,0.004,3.76,0.009,5.64,0.014l-0.014-0.014c0,0.942,0,1.884,0,2.827l0.015-0.013C54.926,31.664,53.046,31.668,51.166,31.672z"
		/>
	<path fill-rule="evenodd" clip-rule="evenodd" fill="#FFFFFF" d="M56.792,17.498c0.943,0,1.885,0,2.827,0c0,1.855,0,3.712,0,5.601
		c-0.941,0-1.852,0-2.827,0C56.792,21.232,56.792,19.365,56.792,17.498z"/>
	<path fill-rule="evenodd" clip-rule="evenodd" fill="#FFFFFF" d="M59.605,17.512c0-0.974,0-1.947,0-2.921c0.975,0,1.947,0,2.921,0
		c0,0.95,0,1.901,0,2.921C61.529,17.512,60.567,17.512,59.605,17.512z"/>
	<path fill-rule="evenodd" clip-rule="evenodd" fill="#FFFFFF" d="M62.526,28.86c0-0.948,0-1.897,0-2.88c0.926,0,1.835,0,2.776,0
		c0,0.935,0,1.875,0,2.867c-0.933,0-1.861,0-2.79,0L62.526,28.86z"/>
	<path fill-rule="evenodd" clip-rule="evenodd" fill="#FFFFFF" d="M56.806,28.86c0-0.95,0-1.9,0-2.882c0.929,0,1.839,0,2.8,0
		c0,0.959,0,1.92,0,2.882l0.014-0.014c-0.942,0-1.884,0-2.827,0L56.806,28.86z"/>
	<path fill-rule="evenodd" clip-rule="evenodd" fill="#FFFFFF" d="M56.806,14.591c0,0.974,0,1.947,0,2.921c-0.942,0-1.884,0-2.827,0
		c0-0.951,0-1.901,0-2.921C54.945,14.591,55.875,14.591,56.806,14.591z"/>
	<path fill-rule="evenodd" clip-rule="evenodd" fill="#FFFFFF" d="M65.328,20.31c0,0.918,0,1.836,0,2.788c-0.927,0-1.836,0-2.776,0
		c0-0.904,0-1.813,0-2.774c0.932,0,1.86,0,2.789,0L65.328,20.31z"/>
	<path fill-rule="evenodd" clip-rule="evenodd" fill="#FFFFFF" d="M62.514,14.604c0-0.918,0-1.836,0-2.787c0.94,0,1.851,0,2.826,0
		c0,0.928,0,1.857,0,2.787C64.397,14.604,63.455,14.604,62.514,14.604z"/>
	<path fill-rule="evenodd" clip-rule="evenodd" fill="#FFFFFF" d="M34.112,40.194c-0.917,0-1.835,0-2.787,0c0-0.957,0-1.897,0-2.87
		c0.903,0,1.813,0,2.773,0c0,0.963,0,1.922,0,2.883L34.112,40.194z"/>
	<path fill-rule="evenodd" clip-rule="evenodd" fill="#FFFFFF" d="M28.471,79.875c0-1.88,0-3.76,0-5.639c0.918,0,1.836,0,2.803,0
		c0,0.94,0,1.852,0,2.813c0.978,0,1.907,0,2.836,0c0,0.919,0,1.838,0,2.825C32.207,79.875,30.339,79.875,28.471,79.875z"/>
	<path fill-rule="evenodd" clip-rule="evenodd" fill="#FFFFFF" d="M34.112,85.584c-0.917,0-1.835,0-2.787,0c0-0.957,0-1.897,0-2.87
		c0.903,0,1.813,0,2.773,0c0,0.964,0,1.923,0,2.884L34.112,85.584z"/>
	<path fill-rule="evenodd" clip-rule="evenodd" fill="#FFFFFF" d="M51.179,54.368c0-0.942,0-1.886,0-2.828l-0.013,0.014
		c1.88,0,3.76,0,5.64,0l-0.014-0.013c0,0.941,0,1.885,0,2.826l0.014-0.014c-1.88,0-3.76,0-5.64,0L51.179,54.368z"/>
	<path fill-rule="evenodd" clip-rule="evenodd" fill="#FFFFFF" d="M42.644,48.648c0-0.918,0-1.835,0-2.788c0.926,0,1.836,0,2.777,0
		c0,0.905,0,1.814,0,2.774c-0.932,0-1.861,0-2.79,0L42.644,48.648z"/>
	<path fill-rule="evenodd" clip-rule="evenodd" fill="#FFFFFF" d="M42.644,94.038c0-0.918,0-1.835,0-2.787c0.926,0,1.835,0,2.777,0
		c0,0.903,0,1.813,0,2.774c-0.932,0-1.861,0-2.79,0L42.644,94.038z"/>
	<path fill-rule="evenodd" clip-rule="evenodd" fill="#FFFFFF" d="M19.95,37.286c0,0.973,0,1.947,0,2.92c-0.942,0-1.884,0-2.827,0
		c0-0.95,0-1.901,0-2.92C18.088,37.286,19.02,37.286,19.95,37.286z"/>
	<path fill-rule="evenodd" clip-rule="evenodd" fill="#FFFFFF" d="M17.136,40.193c0,0.92,0,1.839,0,2.827c-0.997,0-1.958,0-2.92,0
		c0-0.943,0-1.884,0-2.827C15.189,40.193,16.163,40.193,17.136,40.193z"/>
	<path fill-rule="evenodd" clip-rule="evenodd" fill="#FFFFFF" d="M45.458,71.342c-0.943,0-1.884,0-2.827,0c0-0.918,0-1.836,0-2.787
		c0.942,0,1.852,0,2.827,0C45.458,69.483,45.458,70.412,45.458,71.342z"/>
	<path fill-rule="evenodd" clip-rule="evenodd" fill="#FFFFFF" d="M34.11,14.604c-0.942,0-1.884,0-2.826,0c0-0.918,0-1.836,0-2.787
		c0.941,0,1.851,0,2.826,0C34.11,12.746,34.11,13.675,34.11,14.604z"/>
	<path fill-rule="evenodd" clip-rule="evenodd" fill="#FFFFFF" d="M48.259,14.591c0.95,0,1.901,0,2.92,0c0,0.996,0,1.958,0,2.921
		c-0.951,0-1.901,0-2.92,0C48.259,16.515,48.259,15.553,48.259,14.591z"/>
	<path fill-rule="evenodd" clip-rule="evenodd" fill="#FFFFFF" d="M42.631,25.951c0-0.941,0-1.884,0-2.826c0.943,0,1.884,0,2.827,0
		c0,0.919,0,1.838,0,2.826C44.493,25.951,43.562,25.951,42.631,25.951z"/>
	<path fill-rule="evenodd" clip-rule="evenodd" fill="#FFFFFF" d="M48.272,23.138c-0.943,0-1.884,0-2.827,0c0-0.918,0-1.836,0-2.787
		c0.942,0,1.851,0,2.827,0C48.272,21.279,48.272,22.208,48.272,23.138z"/>
	<path fill-rule="evenodd" clip-rule="evenodd" fill="#FFFFFF" d="M42.645,23.138c-0.919,0-1.838,0-2.827,0c0-0.965,0-1.896,0-2.826
		c0.919,0,1.839,0,2.827,0C42.645,21.277,42.645,22.208,42.645,23.138z"/>
	<path fill-rule="evenodd" clip-rule="evenodd" fill="#FFFFFF" d="M51.164,34.485c0.918,0,1.835,0,2.788,0c0,0.926,0,1.835,0,2.777
		c-0.903,0-1.812,0-2.774,0c0-0.932,0-1.861,0-2.79L51.164,34.485z"/>
	<path fill-rule="evenodd" clip-rule="evenodd" fill="#FFFFFF" d="M51.166,8.964c0.941,0,1.885,0,2.826,0c0,0.918,0,1.836,0,2.787
		c-0.941,0-1.851,0-2.826,0C51.166,10.823,51.166,9.894,51.166,8.964z"/>
	<path fill-rule="evenodd" clip-rule="evenodd" d="M68.141,65.715c0-0.92,0-1.839,0-2.814c-0.953,0-1.883,0-2.813,0
		c0-0.948,0-1.897,0-2.896c-0.928,0-1.839,0-2.813,0c0-0.978,0-1.908,0-2.838c0.918,0,1.836,0,2.803,0c0-0.927,0-1.837,0-2.798
		c0.977,0,1.906,0,2.836,0l-0.014-0.013c0,0.919,0,1.838,0,2.808c0.948,0,1.86,0,2.806,0c0,0.95,0,1.852,0,2.803
		c1.914,0,3.794,0,5.743,0c0,1.011,0,1.973,0,2.934c-1.886,0-3.772,0-5.709,0c0,0.927,0,1.838,0,2.814
		C69.999,65.715,69.07,65.715,68.141,65.715z"/>
	<path fill-rule="evenodd" clip-rule="evenodd" d="M68.152,54.369c0-1.888,0-3.775,0-5.695c2.834,0,5.651,0,8.518,0
		c0,0.937,0,1.88,0,2.856c0.949,0,1.85,0,2.787,0c0,0.943,0,1.854,0,2.798c-1.837,0-3.685,0-5.583,0c0-0.911,0-1.823,0-2.757
		c-0.981,0-1.912,0-2.894,0c0,0.906,0,1.818,0,2.785c-0.98,0-1.91,0-2.842,0L68.152,54.369z"/>
	<path fill-rule="evenodd" clip-rule="evenodd" d="M56.792,54.367c0-0.941,0-1.885,0-2.826c1.889,0,3.776,0,5.734,0
		c0,1.903,0,3.771,0,5.64c-0.949,0-1.898,0-2.896,0c0-0.94,0-1.852,0-2.813C58.652,54.367,57.722,54.367,56.792,54.367z"/>
	<path fill-rule="evenodd" clip-rule="evenodd" d="M85.222,62.9c-1.911,0-3.822,0-5.733,0c0-0.949,0-1.898,0-2.88
		c1.911,0,3.789,0,5.733,0C85.222,60.979,85.222,61.94,85.222,62.9z"/>
	<path fill-rule="evenodd" clip-rule="evenodd" d="M56.806,51.554c-1.88,0-3.76,0-5.64,0c0-0.949,0-1.899,0-2.881
		c1.88,0,3.727,0,5.64,0C56.806,49.632,56.806,50.593,56.806,51.554z"/>
	<path fill-rule="evenodd" clip-rule="evenodd" d="M56.773,42.992c0,0.929,0,1.859,0,2.812c-0.916,0-1.813,0-2.75,0
		c0-0.901,0-1.811,0-2.799c0.91,0,1.837,0,2.765,0C56.789,43.005,56.773,42.992,56.773,42.992z"/>
	<path fill-rule="evenodd" clip-rule="evenodd" d="M56.792,40.193c0.943,0,1.885,0,2.827,0c0,0.917,0,1.833,0,2.799
		c-0.965,0-1.905,0-2.846,0c0,0,0.016,0.014,0.015,0.013C56.789,42.067,56.791,41.13,56.792,40.193z"/>
	<path fill-rule="evenodd" clip-rule="evenodd" d="M51.166,54.354c1.88,0,3.76,0,5.64,0c0,0.921,0,1.84,0,2.827
		c-1.903,0-3.771,0-5.64,0C51.166,56.238,51.166,55.297,51.166,54.354z"/>
	<path fill-rule="evenodd" clip-rule="evenodd" d="M51.179,57.167c0,0.943,0,1.885,0,2.827c-0.95,0-1.899,0-2.881,0
		c0-0.941,0-1.852,0-2.827C49.257,57.167,50.218,57.167,51.179,57.167z"/>
	<path fill-rule="evenodd" clip-rule="evenodd" d="M42.658,59.964c0-0.928,0-1.826,0-2.758c0.917,0,1.827,0,2.766,0
		c0,0.914,0,1.823,0,2.758C44.509,59.964,43.61,59.964,42.658,59.964z"/>
	<path fill-rule="evenodd" clip-rule="evenodd" d="M56.806,65.702c0,0.941,0,1.885,0,2.826c-0.918,0-1.836,0-2.786,0
		c0-0.94,0-1.851,0-2.826C54.947,65.702,55.877,65.702,56.806,65.702z"/>
	<path fill-rule="evenodd" clip-rule="evenodd" d="M59.62,82.678c-0.917,0-1.835,0-2.786,0c0-0.927,0-1.836,0-2.777
		c0.903,0,1.812,0,2.773,0c0,0.933,0,1.861,0,2.79L59.62,82.678z"/>
	<path fill-rule="evenodd" clip-rule="evenodd" d="M79.472,79.851c-0.931,0-1.83,0-2.761,0c0-0.921,0-1.83,0-2.768
		c0.917,0,1.828,0,2.761,0C79.472,78.001,79.472,78.9,79.472,79.851z"/>
	<path fill-rule="evenodd" clip-rule="evenodd" d="M8.629,82.703c2.837,0,5.644,0,8.475,0c0,2.826,0,5.632,0,8.476
		c-2.807,0-5.624,0-8.475,0C8.629,88.375,8.629,85.559,8.629,82.703z"/>
	<path fill-rule="evenodd" clip-rule="evenodd" d="M82.33,17.478c0-2.826,0-5.632,0-8.473c2.816,0,5.634,0,8.48,0
		c0,2.813,0,5.63,0,8.473C87.997,17.478,85.191,17.478,82.33,17.478z"/>
	<path fill-rule="evenodd" clip-rule="evenodd" d="M17.096,17.484c-2.838,0-5.645,0-8.475,0c0-2.826,0-5.632,0-8.476
		c2.808,0,5.625,0,8.475,0C17.096,11.812,17.096,14.629,17.096,17.484z"/>
	<path fill-rule="evenodd" clip-rule="evenodd" d="M56.792,28.846c0.943,0,1.885,0,2.827,0c0,0.919,0,1.838,0,2.827
		c-0.965,0-1.896,0-2.827,0C56.792,30.73,56.792,29.788,56.792,28.846z"/>
</g>
</svg>
