<?xml version="1.0" encoding="utf-8"?>
<!-- Generator: Adobe Illustrator 16.0.0, SVG Export Plug-In . SVG Version: 6.00 Build 0)  -->
<!DOCTYPE svg PUBLIC "-//W3C//DTD SVG 1.1//EN" "http://www.w3.org/Graphics/SVG/1.1/DTD/svg11.dtd">
<svg version="1.1" id="Capa_1" xmlns="http://www.w3.org/2000/svg" xmlns:xlink="http://www.w3.org/1999/xlink" x="0px" y="0px"
	 width="100px" height="100px" viewBox="0 0 100 100" enable-background="new 0 0 100 100" xml:space="preserve">
<g>
	<rect fill="#FFFFFF" width="100" height="100"/>
	<g>
		<path fill="#FFFFFF" d="M96.823,96.825c-31.216,0-62.431,0-93.647,0c0-31.218,0-62.433,0-93.649c31.216,0,62.432,0,93.647,0
			C96.823,34.393,96.823,65.607,96.823,96.825z M20.199,65.571c0.005-0.948,0.01-1.896,0.015-2.844c0.929,0,1.858,0,2.808,0
			c0-1.002,0-1.952,0-2.9c0.929,0,1.856,0,2.784,0c0-0.961,0-1.87,0-2.797c-0.95,0-1.867,0-2.784,0c0-0.929,0-1.857,0-2.785
			c-1.896,0-3.739,0-5.632,0c0,0.94,0,1.85,0,2.786c-1.932,0-3.814,0-5.697,0c-0.001-0.94-0.002-1.882-0.002-2.821
			c0.93,0,1.859,0,2.811,0c0-0.977,0-1.894,0-2.812c0.961,0,1.921,0,2.903,0c0-1.004,0-1.954,0-2.903c0.94,0,1.882,0,2.823,0.001
			c0,0.961,0,1.921,0,2.917c4.75,0,9.445,0,14.14,0l-0.014-0.014c0,1.866,0,3.73,0,5.632c0.987,0,1.905,0,2.823,0l-0.013-0.013
			c0,1.896,0,3.793,0,5.711c1.019,0,1.968,0,2.917,0c0,0.941,0,1.882,0,2.825c-0.959,0-1.917,0-2.878,0c0,0.957,0,1.864,0,2.766
			c0.971,0,1.909,0,2.864,0c0-0.947,0-1.864,0-2.78c0.942,0,1.883,0,2.825,0c0,0.929,0,1.859,0,2.808c1.91,0,3.764,0,5.618,0
			c0,0.942,0,1.884,0,2.824c-2.801,0-5.603,0-8.427,0c0,1.004,0,1.951,0,2.899c-0.959,0-1.918,0-2.88,0c0,0.96,0,1.869,0,2.771
			c0.971,0,1.911,0,2.866,0c0-0.95,0-1.867,0-2.783c0.929,0,1.859,0,2.778,0c0,1.917,0,3.765,0,5.644c-1.904,0-3.77,0-5.688,0
			c0,0.946,0,1.855,0,2.815c-0.961,0-1.872,0-2.816,0c0,0.981,0,1.913,0,2.849c-1.881,0-3.727,0-5.624,0c0-0.973,0-1.915,0-2.844
			c-0.982,0-1.913,0-2.847,0c0,1.903,0,3.782,0,5.678c3.79,0,7.548,0,11.306,0c0,0.94,0,1.882,0,2.822c-0.927,0-1.854,0-2.828,0
			c0,0.958,0,1.864,0,2.793c-0.961,0-1.875,0-2.79,0c0-0.929,0-1.854,0-2.773c-1.948,0-3.814,0-5.693,0c0,1.9,0,3.777,0,5.653
			c0.969,0,1.909,0,2.9,0c0-0.972,0-1.915,0-2.895c0.969,0,1.887,0,2.805,0c0,0.973,0,1.944,0,2.89c1.897,0,3.74,0,5.592,0
			c0-1.917,0-3.799,0-5.683c0.96,0,1.921,0,2.932,0c0,1.949,0,3.828,0,5.695c0.95,0,1.849,0,2.798,0c0-1.903,0-3.78,0-5.692
			c1.905,0,3.76,0,5.614,0c0,0.94,0,1.881,0.001,2.821c-0.928,0-1.855,0-2.786,0c0,0.989,0,1.931,0,2.863c0.939,0,1.848,0,2.772,0
			c0-0.981,0-1.93,0-2.877c0.972,0,1.944,0.002,2.917,0.002c0,0.96,0,1.92,0,2.875c1.897,0,3.742,0,5.636,0c0-0.972,0-1.912,0-2.844
			c0.948,0,1.847,0,2.795,0c0,0.965,0,1.906,0,2.844c0.99,0,1.931,0,2.887,0c0-1.917,0-3.801,0-5.685c0.93,0,1.86,0,2.839,0
			c0,0.979,0,1.891,0,2.79c0.951,0,1.85,0,2.799,0c0-1.871,0-3.719,0-5.617c0.961,0,1.871,0,2.815,0c0-0.948,0-1.848,0-2.755
			c0.976,0,1.917,0,2.908,0c0,1.879,0,3.727,0,5.562c0.97,0,1.889,0,2.808,0c0,0.94,0,1.881,0,2.829c1.904,0,3.754,0,5.605,0
			c0,0.96,0,1.923,0,2.87c1.934,0,3.812,0,5.723,0c0-0.967,0-1.897,0-2.877c2.85,0,5.664,0,8.465,0c0-1.898,0-3.746,0-5.577
			c-0.97,0-1.899,0-2.88,0c0,0.938,0,1.848,0,2.757c-0.951,0-1.85,0-2.8,0c0-1.869,0-3.717,0-5.56c-0.963,0-1.873,0-2.817,0
			c0,0.934,0,1.833,0,2.783c-1.913,0-3.791,0-5.69,0c0,0.97,0,1.889,0,2.806c-1.873-0.005-3.745-0.01-5.617-0.017
			c0-1.865,0-3.729,0-5.628c2.87,0,5.673,0,8.527,0c0-0.977,0-1.917,0-2.86c2.823,0,5.596,0,8.419,0c0,0.965,0,1.905,0,2.846
			c0.994,0,1.935,0,2.873,0c0-1.902,0-3.77,0-5.688c-1.901,0-3.78,0-5.696,0c0-0.97,0-1.889,0-2.805c0.929,0,1.858,0,2.785,0
			c0-1.93,0-3.805,0-5.7c-0.949,0-1.866,0-2.783,0c0.006-0.936,0.012-1.872,0.018-2.808c1.894,0,3.788,0,5.677,0
			c0-0.979,0-1.877,0-2.827c-0.965,0-1.905,0-2.896,0c0-0.96,0-1.869,0-2.779c-0.95,0-1.849,0-2.767,0c0,1.887,0,3.754-0.001,5.618
			c-0.939,0-1.878,0-2.828,0c0,0.965,0,1.882,0,2.796c-1.897,0-3.793,0-5.682,0c0-0.979,0-1.889,0-2.834c0.966,0,1.896,0,2.877,0
			c0-0.943,0-1.855,0-2.815c0.962,0,1.872,0,2.771,0c0-0.95,0-1.848,0-2.797c-1.901,0-3.779,0-5.678,0c0-1.938,0-3.822,0-5.707
			l-0.014,0.013c0.96,0,1.921,0,2.928,0c0-1.914,0-3.759,0-5.653c0.958,0,1.868,0,2.764,0c0-0.999,0-1.949,0.002-2.897
			c0.947,0.005,1.895,0.01,2.842,0.015c0,1.898,0,3.795,0,5.743c0.967,0,1.878,0,2.774,0c0,0.952,0,1.851,0,2.801
			c-1.874,0-3.721,0-5.568,0c0,0.95,0,1.85,0,2.766c2.837,0,5.651,0,8.464,0c0-4.716,0-9.403,0-14.089c-0.965,0-1.895,0-2.876,0
			c0,0.934,0,1.845,0,2.794c-0.97,0-1.888,0-2.807,0c0-0.927,0-1.854,0-2.788c-0.957,0-1.864,0-2.816,0c0,0.942,0,1.856,0,2.771
			c-0.927,0-1.854,0-2.815,0c0-0.964,0-1.863,0-2.768c-0.977,0-1.917,0-2.908,0c0,1.909,0,3.786,0,5.654c-0.949,0-1.848,0-2.797,0
			c0-1.902,0-3.78,0-5.679c-0.969,0-1.887,0-2.804,0c0-0.927,0-1.855,0-2.829c-0.967,0-1.881,0-2.796,0
			c-0.002-0.232-0.007-0.465-0.009-0.698c-0.01-1.675-0.018-3.35-0.025-5.024c0.948,0.005,1.896,0.01,2.842,0.015
			c0,0.959,0,1.918,0,2.879c1.896,0,3.74,0,5.63,0c0-1.906,0-3.781,0-5.69c0.994,0,1.943,0,2.891,0c0,0.928,0,1.857,0,2.829
			c1.903,0,3.754,0,5.604,0c0,0.958,0,1.915,0,2.854c1.956,0,3.831,0,5.697,0c0-0.967,0-1.896,0-2.84c-1.92,0-3.814,0-5.709-0.001
			c0.011-0.942,0.021-1.883,0.032-2.825c1.895,0,3.79,0,5.676,0c0-0.981,0-1.88,0-2.829c-0.966,0-1.908,0-2.886,0
			c0-0.968,0-1.886,0.001-2.804c0.957,0,1.918,0,2.879,0c0-0.991,0-1.93,0-2.864c-0.971,0-1.91,0-2.866,0c0,0.982,0,1.93,0,2.877
			c-1.864,0-3.728,0-5.592,0c0,0.959,0,1.869,0,2.828c0.944,0,1.854,0,2.803,0c0,0.969,0,1.887-0.001,2.804
			c-1.884-0.005-3.768-0.01-5.651-0.016c0-1.864,0-3.73,0-5.616c-1.939,0-3.825,0-5.711,0c0-0.959,0-1.917,0-2.879
			c-0.959,0-1.867,0-2.769,0c0,0.971,0,1.91,0,2.866c0.95,0,1.866,0,2.783,0c0,0.928,0,1.856,0,2.832c-0.976,0-1.886,0-2.812,0
			c0,0.966,0,1.883,0,2.799c-0.928,0-1.854,0-2.828,0c0,0.964,0,1.879,0,2.793c-0.959,0-1.918,0-2.91,0c0,1.015,0,1.946,0,2.926
			c-1.881,0-3.727,0-5.624,0c0,0.961,0,1.872,0,2.815c-0.95,0-1.849,0-2.753,0c0,0.945,0,1.854,0,2.815c0.941,0,1.853,0,2.797,0
			c0,0.95,0,1.849,0,2.752c0.944,0,1.854,0,2.813,0c0-1.878,0-3.725,0-5.586c0.316,0,0.58,0.001,0.847,0
			c1.621-0.008,3.242-0.017,4.862-0.024c0,0.939,0,1.877,0,2.828c0.967,0,1.882,0,2.797,0c0,0.93,0,1.859,0,2.838
			c-1.949,0-3.826,0-5.694,0c0,0.981,0,1.911,0,2.891c0.967,0,1.909,0,2.885,0c0,2.842,0,5.633,0,8.423c-0.96,0-1.92,0-2.928,0
			c0-1.91,0-3.754,0-5.618c-0.966,0-1.883,0-2.799,0c0-0.929,0-1.857,0-2.834c-1.899,0-3.745,0-5.639,0c0-0.99,0-1.932,0-2.858
			c-0.98,0-1.91,0-2.89,0c0,0.967,0,1.908,0,2.844c-2.83,0-5.61,0-8.423,0c0-1.917,0-3.802,0-5.686c0.929,0,1.858,0,2.811,0
			c0-0.974,0-1.892,0-2.81c0.94,0,1.88-0.001,2.82-0.001c0,0.928,0,1.855,0,2.786c0.96,0,1.867,0,2.771,0c0-0.939,0-1.848,0-2.772
			c-0.95,0-1.867,0-2.783,0c0.001-0.941,0.001-1.881,0.001-2.823c1.897,0,3.794,0,5.712,0c0-1.94,0-3.826,0-5.711
			c0.946-0.007,1.893-0.013,2.838-0.018c0,0.938,0,1.876,0,2.797c0.958,0,1.864,0,2.783,0c0-0.951,0-1.866,0-2.781
			c0.929,0,1.858,0,2.807,0c0-1.908,0-3.762,0-5.616c0.96,0,1.919,0,2.88,0c0-0.991,0-1.93,0-2.864c-0.971,0-1.91,0-2.865,0
			c0,0.982,0,1.93,0,2.877c-0.93,0-1.86,0-2.808,0c0,1.908,0,3.762,0,5.616c-0.937-0.005-1.872-0.011-2.808-0.017
			c0-0.925,0-1.851,0-2.792c-0.995,0-1.91,0-2.827,0c0-0.93,0-1.859,0-2.808c-2.878,0-5.698,0-8.521,0c0-0.973,0-1.945,0-2.917
			c1.865,0,3.731,0,5.617,0c0-0.973,0-1.891,0-2.809c0.962,0,1.923,0,2.904,0c0-1.91,0-3.765,0-5.619
			c0.945-0.007,1.892-0.013,2.837-0.019c-0.004,2.775-0.01,5.55-0.011,8.325c0,0.04,0.037,0.079,0.05,0.102c0.915,0,1.814,0,2.762,0
			c0-1.872,0-3.718,0-5.6c0.967,0,1.885,0,2.803,0c0,0.928,0,1.855,0,2.786c0.991,0,1.931,0,2.864,0c0-0.94,0-1.848,0-2.772
			c-0.983,0-1.93,0-2.878,0c0-0.928,0-1.856,0-2.827c-1.9,0-3.751,0-5.601,0c0-2.828,0-5.655,0-8.518c0.971,0,1.888,0,2.805,0
			c0,0.929,0,1.857,0,2.786c1.929,0,3.803,0,5.672,0c0-0.941,0-1.85,0-2.772c-1.918,0-3.803,0-5.685,0c0-1.865,0-3.73,0-5.589
			c-0.964,0-1.874,0-2.817,0c0,0.935,0,1.834,0,2.783c-0.943,0-1.854,0-2.813,0c0,0.961,0,1.871,0,2.776c-0.981,0-1.911,0-2.892,0
			c0-0.934,0-1.844,0-2.804c-0.961,0-1.871,0-2.814,0c0-0.95,0-1.849,0-2.763c-2.848,0-5.66,0-8.477,0c0,1.874,0,3.719,0,5.554
			c0.974,0,1.915,0,2.889,0c0-0.937,0-1.836,0-2.74c0.944,0,1.854,0,2.813,0c0,0.941,0,1.853,0,2.795c0.951,0,1.85,0,2.756,0
			c0,1.88,0,3.726,0,5.609c-0.947,0-1.865,0-2.783,0c0-0.928,0-1.855,0-2.786c-0.96,0-1.868,0-2.771,0c0,0.94,0,1.848,0,2.773
			c0.951,0,1.867,0,2.784,0c0,0.971,0,1.943-0.002,2.915c-1.896,0-3.793,0-5.713,0c0,1.91,0,3.765,0,5.62c-0.94,0-1.881,0-2.822,0
			c0-1.865,0-3.73,0-5.646c-0.963,0-1.874,0-2.78,0c0-0.98,0-1.911,0-2.891c0.933,0,1.843,0,2.754,0c0-2.832,0-5.613,0-8.414
			c-1.886,0-3.739,0-5.592,0c0-0.928,0-1.855,0-2.789c-1.925,0-3.799,0-5.719,0c0,0.942,0,1.857,0,2.772
			c-1.871,0.005-3.742,0.012-5.612,0.017c0-0.928,0-1.855,0-2.786c-0.991,0-1.93,0-2.864,0c0,0.939,0,1.848,0,2.772
			c0.982,0,1.93,0,2.877,0c0,0.929,0,1.857,0,2.833c0.96,0,1.87,0,2.827,0c0,0.958,0,1.868,0,2.767c0.947,0,1.844,0,2.757,0
			c0-1.889,0-3.752,0.001-5.615c1.915,0.004,3.83,0.01,5.746,0.015c0,0.929,0,1.857,0,2.834c-1.008,0-1.95,0-2.904,0
			c0,1.902,0,3.754,0,5.606c-0.929,0-1.859,0-2.81,0c0,1.005,0,1.955,0,2.904c-0.941,0-1.881,0-2.821,0c0-0.958,0-1.917,0-2.879
			c-0.959,0-1.868,0-2.771,0c0,0.971,0,1.911,0,2.866c0.951,0,1.867,0,2.784,0c0,2.802,0,5.603,0,8.442
			c-0.987,0-1.905,0-2.823-0.001c0-1.863,0-3.727,0-5.595c-0.99,0-1.93,0-2.865,0c0,1.875,0,3.719,0,5.582c0.982,0,1.93,0,2.878,0
			c0,1.909-0.001,3.817-0.001,5.726c-3.768,0-7.535,0-11.352,0c0,1.893,0,3.738,0,5.619c-0.998,0-1.947,0-2.896,0
			c0-1.866,0-3.731,0-5.635c-0.973,0-1.89,0-2.809,0l0.013,0.014c-0.005-0.94-0.01-1.88-0.016-2.82c1.895,0,3.79,0,5.689,0
			c0-0.99,0-1.929,0-2.865c-1.907,0-3.782,0-5.676,0c0,0.982,0,1.93,0,2.878c-0.93,0-1.858,0-2.837,0c0-1.011,0-1.953,0-2.887
			c-1.886,0-3.721,0-5.567,0c0,0.965,0,1.906,0,2.898c0.939,0,1.85,0,2.757,0c0,1.885,0,3.72,0,5.604c-0.933,0-1.843,0-2.753,0
			c0,0.961,0,1.872,0,2.814c0.932,0,1.831,0,2.749,0c0,0.975,0,1.916,0,2.907c-0.937,0-1.848,0-2.744,0c0,0.962,0,1.872,0,2.814
			c0.937,0,1.835,0,2.785,0c0,0.944,0,1.854,0,2.783c1.904,0,3.758,0,5.612,0c0,0.941,0,1.883,0,2.824c-2.801,0-5.601,0-8.401,0
			c0,0.991,0,1.932,0,2.888c2.823,0,5.612,0,8.401,0c-0.001,0.941-0.001,1.884-0.001,2.825c-1.864,0-3.728,0-5.591,0
			c0,0.959,0,1.869,0,2.796c1.887,0,3.74,0,5.593,0c0,0.939,0,1.88,0,2.819c-0.927,0-1.854,0-2.788,0c0,0.988,0,1.928,0,2.909
			c0.943,0,1.857,0,2.771,0c0,1.861,0,3.724,0,5.571c0.986,0,1.895,0,2.796,0c0-1.872,0-3.702,0-5.556c-0.951,0-1.88,0-2.808-0.001
			c0.005-0.979,0.01-1.959,0.015-2.937c2.844,0,5.689,0.001,8.534,0.001c0,0.972,0,1.943,0.001,2.915c-0.927,0-1.854,0-2.788,0
			c0,0.958,0,1.865,0,2.815c0.943,0,1.857,0,2.771,0c0,0.924,0,1.848,0,2.811c0.984,0,1.897,0,2.81,0c0,0.928,0,1.856,0,2.816
			c-2.869,0-5.673,0-8.48,0c0,0.978,0,1.918,0,2.909c3.783,0,7.534,0,11.318,0c0,0.951,0,1.851,0,2.798c0.977,0,1.918,0,2.894,0
			c0,0.951,0,1.851,0,2.767c1.881,0,3.728,0,5.575,0c0-1.874,0-3.719,0-5.601c-0.933,0-1.832,0-2.747,0c0-0.977,0-1.917,0-2.911
			c0.939,0,1.851,0,2.756,0c0-0.95,0-1.848,0-2.798c-1.871,0-3.718,0-5.559,0c0-0.963,0-1.872,0-2.817c0.935,0,1.834,0,2.743,0
			c0-3.785,0-7.535,0-11.279c-0.941,0-1.852,0-2.796,0c0,2.839,0,5.643,0,8.496c-0.975,0-1.917,0-2.909,0c0,1.897,0,3.745,0,5.634
			c-0.971,0-1.89,0-2.808-0.002c0-0.929,0-1.857,0-2.808C22.056,65.571,21.126,65.571,20.199,65.571z M8.894,71.157
			c0,0.958,0,1.918,0,2.878c0.959,0,1.868,0,2.771,0c0-0.97,0-1.908,0-2.865c-0.951,0-1.867,0-2.784,0c0-1.862,0-3.725,0-5.594
			c-0.955,0-1.864,0-2.769,0c0,1.876,0,3.719,0,5.581C7.06,71.157,7.977,71.157,8.894,71.157z M76.909,3.291
			c0,6.595,0,13.154,0,19.702c6.624,0,13.214,0,19.797,0c0-6.585,0-13.133,0-19.702C90.102,3.291,83.523,3.291,76.909,3.291z
			 M23.009,76.91c-6.598,0-13.157,0-19.702,0c0,6.624,0,13.214,0,19.796c6.585,0,13.133,0,19.702,0
			C23.009,90.102,23.009,83.521,23.009,76.91z M3.302,3.291c0,6.595,0,13.155,0,19.702c6.592,0,13.151,0,19.703,0
			c0-6.585,0-13.133,0-19.702C16.432,3.291,9.885,3.291,3.302,3.291z M71.186,96.706c0.983,0,1.912,0,2.854,0
			c0-0.967,0-1.905,0-2.846c-0.972,0-1.911,0-2.854,0C71.186,94.822,71.186,95.754,71.186,96.706z M20.237,28.706
			c0.958,0,1.867,0,2.768,0c0-0.967,0-1.896,0-2.838c-0.934,0-1.843,0-2.768,0C20.237,26.825,20.237,27.754,20.237,28.706z
			 M74.035,6.058c0-0.944,0-1.854,0-2.751c-0.974,0-1.914,0-2.847,0c0,0.935,0,1.833,0,2.751C72.142,6.058,73.07,6.058,74.035,6.058
			z"/>
		<path fill-rule="evenodd" clip-rule="evenodd" d="M76.899,90.992c-0.92,0-1.839,0-2.809,0c0-1.836,0-3.684,0-5.562
			c-0.991,0-1.933,0-2.908,0c0,0.907,0,1.807,0,2.755c-0.944,0-1.854,0-2.815,0c0,1.898,0,3.746,0,5.617c-0.949,0-1.848,0-2.799,0
			c0-0.899,0-1.812,0-2.79c-0.979,0-1.909,0-2.839,0l0.014,0.014c0-0.942,0-1.884,0-2.824l-0.014,0.015c0.93,0,1.858,0,2.822,0
			c0-2.893,0-5.715,0-8.536l-0.014,0.014c0.929,0,1.859,0,2.836,0c0-0.977,0-1.886,0-2.829c0.949,0,1.848,0,2.763,0
			c0-0.943,0-1.853,0-2.81c-0.936,0-1.847,0-2.788,0c0-0.999,0-1.947,0-2.897c0.929,0,1.858,0,2.822,0c0-0.972,0-1.891,0-2.808
			l-0.014,0.013c0.973,0,1.944,0,2.915,0.002l-0.012-0.015c0,0.929,0,1.857,0,2.781c1.913,0,3.758,0,5.592,0
			c0-3.78,0-7.525,0-11.304c-1.886,0-3.738,0-5.592,0l0.015,0.012c0-2.79,0-5.581,0-8.423c-0.976,0-1.918,0-2.885,0
			c0-0.98,0-1.91,0-2.891c1.868,0,3.745,0,5.694,0c0-0.979,0-1.909,0-2.838L76.872,45.7c0.917,0,1.835,0,2.804,0
			c0,1.899,0,3.776,0,5.679c0.949,0,1.848,0,2.797,0c0-1.868,0-3.746,0-5.654c0.991,0,1.932,0,2.908,0c0,0.904,0,1.803,0,2.768
			c0.961,0,1.889,0,2.816,0c0,0.001-0.016-0.013-0.016-0.013c0,0.949,0,1.899,0,2.898c-0.896,0-1.806,0-2.764,0
			c0,1.895,0,3.739,0,5.653c-1.007,0-1.968,0-2.928,0c0-0.927,0-1.855,0-2.785c-0.96,0-1.868,0-2.77,0c0,0.939,0,1.848,0,2.772
			c0.95,0,1.866,0,2.783,0c0,1.885,0,3.77,0,5.707c1.898,0,3.776,0,5.678,0c0,0.949,0,1.847,0,2.797c-0.899,0-1.81,0-2.771,0
			c0,0.96,0,1.872,0,2.815c-0.98,0-1.911,0-2.877,0c0,0.945,0,1.854,0,2.834c1.889,0,3.784,0,5.682,0l-0.013-0.015
			c0,0.96,0,1.92,0,2.926c-0.96,0-1.869,0-2.768,0c0,0.958,0,1.867,0,2.801c1.887,0,3.739,0,5.59,0l-0.015-0.012
			c0,0.916,0,1.835,0,2.805c1.916,0,3.795,0,5.696,0c0,1.918,0,3.785,0,5.688c-0.938,0-1.879,0-2.873,0c0-0.94,0-1.881,0-2.846
			c-2.823,0-5.596,0-8.419,0c0,0.943,0,1.884,0,2.86c-2.854,0-5.657,0-8.527,0c0,1.898,0,3.763,0,5.628
			C76.885,91.007,76.899,90.992,76.899,90.992z M74.088,82.463c2.82,0,5.603,0,8.37,0c0-2.815,0-5.599,0-8.37
			c-2.808,0-5.579,0-8.37,0C74.088,76.889,74.088,79.66,74.088,82.463z"/>
		<path fill-rule="evenodd" clip-rule="evenodd" d="M40.08,62.729c-0.949,0-1.898,0-2.917,0c0-1.918,0-3.815,0-5.711
			c0.959,0,1.918,0,2.879,0c0-0.96,0-1.868,0-2.771c-0.971,0-1.91,0-2.866,0c0,0.95,0,1.867,0,2.783c-0.918,0-1.836,0-2.823,0
			c0-1.901,0-3.766,0-5.632c1.897,0,3.794,0,5.742,0c0-0.997,0-1.939,0-2.914c0.951,0,1.85,0,2.757,0c0-0.945,0-1.854,0-2.757
			c-1.909,0-3.786,0-5.698,0c0,0.936,0,1.835,0,2.785c-0.945,0-1.855,0-2.787,0c0,1.001,0,1.951,0,2.9c-4.695,0-9.39,0-14.14,0
			c0-0.996,0-1.957,0-2.917l-0.013,0.013c3.768,0,7.535,0,11.354,0c0-0.973,0-1.882,0-2.842c0.96,0,1.871,0,2.813,0
			c0-0.95,0-1.849,0-2.797c1.911,0,3.788,0,5.699,0c0-0.967,0-1.885,0-2.803l-0.013,0.013c0.928,0,1.856,0,2.833,0
			c0,0.959,0,1.869,0,2.767c0.958,0,1.866,0,2.786,0c0-1.917,0-3.8,0-5.683c0.941,0.004,1.883,0.009,2.823,0.013l-0.013-0.013
			c0.004,2.844,0.01,5.689,0.014,8.533c-0.928,0-1.855,0-2.786,0c0,0.96,0,1.868,0,2.77c0.939,0,1.848,0,2.772,0
			c0-0.95,0-1.867,0-2.783c0.972,0.005,1.944,0.01,2.916,0.015l-0.014-0.013c0,1.884,0,3.769,0,5.686c2.812,0,5.593,0,8.423,0
			c0-0.936,0-1.877,0-2.844c0.979,0,1.909,0,2.89,0c0,0.927,0,1.868,0,2.858c1.894,0,3.739,0,5.639,0c0,0.977,0,1.905,0,2.834
			l0.014-0.014c-2.832,0-5.663,0-8.543,0c0,1.908,0,3.753,0,5.62c-0.968,0-1.885,0-2.803,0l0.014,0.012c0-0.928,0-1.858,0-2.837
			c-1.916,0-3.762,0-5.641,0c0-0.949,0-1.85,0-2.756c-0.978,0-1.918,0-2.91,0c0,0.94,0,1.851,0,2.752c-0.95,0-1.849,0-2.798,0
			c0-0.935,0-1.847,0-2.747c-0.962,0-1.872,0-2.815,0c0,1.871,0,3.707,0,5.593c-0.944,0-1.855,0-2.8,0c0,1,0,1.949,0,2.898
			L40.08,62.729z"/>
		<path fill-rule="evenodd" clip-rule="evenodd" d="M37.178,91.023c0-0.94,0-1.882,0-2.822l-0.013,0.015c2.833,0,5.666,0,8.535,0
			c0-1.954,0-3.84,0-5.727l-0.013,0.015c1.896,0,3.792,0,5.74,0c0,0.994,0,1.935,0,2.873c2.82,0,5.591,0,8.38,0
			c0-1.901,0-3.777,0-5.705c-1.874,0-3.719,0-5.616,0c0-0.96,0-1.869,0-2.812c-0.949,0-1.848,0-2.753,0c0-0.945,0-1.854,0-2.783
			c1.885,0,3.738,0,5.592,0l-0.012-0.015c0,0.932,0,1.859,0,2.778c1.948,0,3.825,0,5.736,0c0-0.936,0-1.835,0-2.742
			c0.945,0,1.854,0,2.785,0c0,1.887,0,3.741,0,5.596l0.014-0.014c-0.93,0-1.858,0-2.822,0c0,2.892,0,5.714,0,8.536l0.014-0.015
			c-0.96,0-1.919,0-2.877,0c0,0.975,0,1.884,0,2.824c0.98,0,1.929,0,2.877,0l-0.014-0.014c0,1.884,0,3.768,0,5.685
			c-0.956,0-1.896,0-2.887,0c0-0.938,0-1.879,0-2.844c-0.948,0-1.847,0-2.795,0c0,0.932,0,1.872,0,2.844c-1.894,0-3.738,0-5.636,0
			c0-0.955,0-1.915,0-2.875l-0.015,0.012c0.928,0,1.855,0,2.828,0c0-0.977,0-1.891,0-2.805c0.927,0,1.852,0,2.761,0
			c0-0.989,0-1.896,0-2.796c-0.935,0-1.832,0-2.746,0c0,0.951,0,1.879-0.001,2.808c-0.947-0.01-1.895-0.02-2.842-0.028l0.014,0.014
			c0-0.928,0-1.856,0-2.783c-1.005,0-1.945,0-2.916,0c0,0.948,0,1.864,0,2.783l0.013-0.014c-1.854,0-3.708,0-5.614,0
			c0,1.912,0,3.789,0,5.692c-0.949,0-1.848,0-2.798,0c0-1.867,0-3.746,0-5.695c-1.01,0-1.971,0-2.932,0L37.178,91.023z"/>
		<path fill-rule="evenodd" clip-rule="evenodd" d="M76.909,3.291c6.614,0,13.192,0,19.797,0c0,6.569,0,13.117,0,19.702
			c-6.583,0-13.173,0-19.797,0C76.909,16.445,76.909,9.886,76.909,3.291z M79.695,20.191c4.727,0,9.413,0,14.1,0
			c0-4.715,0-9.401,0-14.075c-4.72,0-9.405,0-14.1,0C79.695,10.817,79.695,15.48,79.695,20.191z"/>
		<path fill-rule="evenodd" clip-rule="evenodd" d="M23.009,76.91c0,6.611,0,13.191,0,19.796c-6.569,0-13.117,0-19.702,0
			c0-6.582,0-13.172,0-19.796C9.853,76.91,16.412,76.91,23.009,76.91z M20.187,93.807c0-4.725,0-9.409,0-14.084
			c-4.72,0-9.406,0-14.082,0c0,4.714,0,9.388,0,14.084C10.804,93.807,15.479,93.807,20.187,93.807z"/>
		<path fill-rule="evenodd" clip-rule="evenodd" d="M3.302,3.291c6.583,0,13.13,0,19.703,0c0,6.569,0,13.117,0,19.702
			c-6.552,0-13.11,0-19.703,0C3.302,16.445,3.302,9.886,3.302,3.291z M6.113,6.1c0,4.725,0,9.411,0,14.083c4.72,0,9.406,0,14.082,0
			c0-4.713,0-9.388,0-14.083C15.494,6.1,10.819,6.1,6.113,6.1z"/>
		<path fill-rule="evenodd" clip-rule="evenodd" d="M14.501,37.178c0.949,0,1.898,0,2.896,0c0-1.88,0-3.726,0-5.619
			c3.816,0,7.583,0,11.352,0l-0.013-0.014c0,0.928,0,1.856,0,2.783c0.974,0,1.882,0,2.822,0c0-0.949,0-1.866,0-2.783l-0.013,0.013
			c1.878,0,3.755,0,5.632,0l-0.013-0.013c0,0.929,0,1.857,0,2.834c1.006,0,1.947,0,2.902,0c0,1.933,0,3.817,0,5.701l0.013-0.013
			c-1.897,0-3.793,0-5.742,0c0-0.997,0-1.939,0-2.871c-0.95,0-1.849,0-2.799,0c0,1.903,0,3.782,0,5.649c-1.929,0-3.807,0-5.727,0
			c0-0.956,0-1.875,0-2.794c0.971,0,1.941,0,2.893,0c0-0.989,0-1.927,0-2.876c-0.982,0-1.929,0-2.875,0c0-0.928,0-1.856,0-2.784
			c-1.895,0-3.739,0-5.576,0c0,0.94,0,1.849,0,2.771c1.886,0,3.737,0,5.589,0c-0.005,0.967-0.011,1.934-0.017,2.901
			c-0.203,0.003-0.406,0.009-0.608,0.009c-3.572,0.003-7.145,0.005-10.718,0.008c0.004-0.973,0.009-1.945,0.013-2.917L14.501,37.178
			z"/>
		<path fill-rule="evenodd" clip-rule="evenodd" d="M23.007,68.381c0.919,0,1.838,0,2.809,0c0-1.889,0-3.736,0-5.634
			c0.991,0,1.934,0,2.909,0c0-2.854,0-5.657,0-8.496c0.944,0,1.854,0,2.796,0c0,3.744,0,7.494,0,11.279c-0.909,0-1.809,0-2.743,0
			c0,0.945,0,1.854,0,2.817c1.841,0,3.688,0,5.559,0c0,0.95,0,1.848,0,2.798c-0.906,0-1.817,0-2.756,0c0,0.994,0,1.935,0,2.911
			c0.915,0,1.813,0,2.747,0c0,1.882,0,3.727,0,5.601c-1.847,0-3.693,0-5.575,0c0-0.916,0-1.815,0-2.767c-0.975,0-1.917,0-2.894,0
			c0-0.947,0-1.847,0-2.798c-3.785,0-7.535,0-11.318,0c0-0.991,0-1.932,0-2.909c2.807,0,5.611,0,8.48,0c0-0.96,0-1.889,0-2.816
			C23.021,68.367,23.007,68.381,23.007,68.381z"/>
		<path fill-rule="evenodd" clip-rule="evenodd" d="M54.209,14.515c0.918,0,1.836,0,2.783,0c0-1.883,0-3.729,0-5.609
			c-0.906,0-1.805,0-2.756,0c0-0.942,0-1.854,0-2.795c-0.96,0-1.869,0-2.813,0c0,0.904,0,1.804,0,2.74c-0.974,0-1.915,0-2.889,0
			c0-1.834,0-3.68,0-5.554c2.817,0,5.629,0,8.477,0c0,0.914,0,1.813,0,2.763c0.943,0,1.854,0,2.814,0c0,0.96,0,1.871,0,2.804
			c0.98,0,1.91,0,2.892,0c0-0.905,0-1.815,0-2.776c0.96,0,1.87,0,2.813,0c0-0.949,0-1.848,0-2.783c0.943,0,1.854,0,2.817,0
			c0,1.858,0,3.724,0,5.589l0.013-0.014c-0.917,0-1.834,0-2.805,0c0,2.863,0,5.69-0.001,8.519c0,0,0.013-0.015,0.013-0.015
			c-0.946,0.007-1.893,0.013-2.838,0.02l0.014,0.013c0-0.959,0-1.918,0-2.876c-1.006,0-1.945,0-2.917,0c0,0.98,0,1.928,0,2.876
			l0.014-0.013c-1.878,0-3.756,0-5.632,0l0.013,0.013c0.002-0.972,0.002-1.944,0.002-2.915L54.209,14.515z"/>
		<path fill-rule="evenodd" clip-rule="evenodd" d="M37.177,88.201c-3.758,0-7.516,0-11.306,0c0-1.896,0-3.774,0-5.678
			c0.935,0,1.865,0,2.847,0c0,0.929,0,1.871,0,2.844c1.897,0,3.743,0,5.624,0c0-0.936,0-1.867,0-2.849c0.944,0,1.854,0,2.816,0
			c0-0.96,0-1.869,0-2.815c1.917,0,3.784,0,5.688,0c0-1.879,0-3.727,0-5.644c-0.919,0-1.849,0-2.778,0l0.014,0.012
			c0-0.948,0-1.896,0-2.899c2.824,0,5.625,0,8.427,0l-0.013-0.015c0,2.832,0,5.661,0,8.541c-0.957,0-1.867,0-2.809,0
			c0,0.97,0,1.887,0,2.806l0.013-0.015c-1.863,0-3.725,0-5.636,0c0,0.999,0,1.939,0,2.926c-0.989,0-1.929,0-2.899,0
			c0,0.968,0,1.884,0,2.801L37.177,88.201z"/>
		<path fill-rule="evenodd" clip-rule="evenodd" d="M45.686,23.037c0.94,0,1.881,0,2.822,0l-0.013-0.014c0,1.896,0,3.794,0,5.726
			c1.017,0,1.967,0,2.916,0l-0.014-0.013c0,0.928,0,1.856,0,2.783c0.975,0,1.884,0,2.823,0c0-0.949,0-1.866,0-2.783l-0.013,0.014
			c2.822,0,5.643,0,8.521,0c0,0.949,0,1.878,0,2.808l0.015-0.013c-1.897,0-3.793,0-5.741,0c0,0.979,0,1.889,0,2.833
			c-0.95,0-1.85,0-2.799,0c0,0.944,0,1.855,0,2.787c-1.938,0-3.822,0-5.708,0l0.013,0.013c0-0.93,0-1.859,0-2.81
			c-0.986,0-1.905,0-2.823,0c0-0.929,0-1.859,0-2.822c-2.877,0-5.699,0-8.521,0l0.013,0.013c0-0.94,0-1.881,0-2.822l-0.013,0.013
			c1.896,0,3.793,0,5.712,0c0-1.017,0-1.967,0-2.916c0.929,0,1.858,0,2.823,0c0-0.973,0-1.892,0-2.81L45.686,23.037z"/>
		<path fill-rule="evenodd" clip-rule="evenodd" d="M11.705,45.685c-1.854,0-3.708,0-5.612,0c0-0.929,0-1.839,0-2.783
			c-0.949,0-1.848,0-2.785,0c0-0.942,0-1.853,0-2.814c0.896,0,1.807,0,2.744,0c0-0.991,0-1.932,0-2.907c-0.918,0-1.817,0-2.749,0
			c0-0.943,0-1.853,0-2.814c0.91,0,1.82,0,2.753,0c0-1.885,0-3.719,0-5.604c-0.907,0-1.817,0-2.757,0c0-0.992,0-1.933,0-2.898
			c1.847,0,3.682,0,5.567,0c0,0.934,0,1.875,0,2.887c0.979,0,1.907,0,2.837,0l-0.014-0.013c0.005,0.94,0.01,1.879,0.016,2.82
			c-0.928,0-1.855,0-2.786,0c0,0.96,0,1.868,0,2.77c0.939,0,1.847,0,2.772,0c0-0.95,0-1.867,0-2.784c0.918,0,1.836,0,2.809,0
			c0,1.903,0,3.769,0,5.635l0.013-0.014c-0.929,0-1.858,0-2.809,0c0,1.017,0,1.966,0,2.916c-0.928,0-1.857,0-2.784,0
			c0,0.961,0,1.87,0,2.797c0.95,0,1.867,0,2.784,0c-0.004,0.94-0.009,1.882-0.014,2.822L11.705,45.685z"/>
		<path fill-rule="evenodd" clip-rule="evenodd" d="M40.068,6.087c1.854,0,3.707,0,5.592,0c0,2.801,0,5.582,0,8.414
			c-0.911,0-1.822,0-2.754,0c0,0.98,0,1.91,0,2.891c0.906,0,1.817,0,2.78,0c0,1.915,0,3.78,0,5.646l0.013-0.014
			c-0.941,0.004-1.882,0.009-2.822,0.014c0-0.929,0-1.857,0-2.784c-0.961,0-1.87,0-2.797,0c0,0.95,0,1.867,0,2.784
			c-0.972-0.005-1.944-0.01-2.916-0.014l0.013,0.013c0-1.877,0-3.754,0-5.631l-0.013,0.013c0.958,0,1.918,0,2.876,0
			c0-1.005,0-1.945,0-2.916c-0.981,0-1.929,0-2.876,0l0.013,0.013c0-1.852,0-3.704,0-5.606c0.955,0,1.896,0,2.904,0
			c0-0.977,0-1.905,0-2.834L40.068,6.087z"/>
		<path fill-rule="evenodd" clip-rule="evenodd" d="M82.504,91.023c0-0.917,0-1.836,0-2.806c1.899,0,3.777,0,5.69,0
			c0-0.95,0-1.85,0-2.783c0.944,0,1.854,0,2.817,0c0,1.843,0,3.69,0,5.56c0.95,0,1.849,0,2.8,0c0-0.909,0-1.818,0-2.757
			c0.98,0,1.91,0,2.88,0c0,1.831,0,3.679,0,5.577c-2.801,0-5.615,0-8.465,0c0,0.979,0,1.91,0,2.877c-1.911,0-3.789,0-5.723,0
			c0-0.947,0-1.91,0-2.87l-0.015,0.012c0.959,0,1.919,0,2.877,0c0-0.972,0-1.881,0-2.821c-0.98,0-1.929,0-2.877,0L82.504,91.023z"/>
		<path fill-rule="evenodd" clip-rule="evenodd" d="M48.508,68.348c-1.854,0-3.708,0-5.618,0c0-0.948,0-1.879,0-2.808l-0.013,0.012
			c0.929,0,1.857,0,2.833,0c0-1.941,0-3.817,0-5.681c0.958,0,1.867,0,2.809,0c0,0.966,0,1.896,0,2.835c0.974,0,1.914,0,2.904,0
			c0-0.969,0-1.91,0-2.867c1.903,0,3.756,0,5.608,0l-0.014-0.012c0,0.959,0,1.919,0,2.926c1.941,0,3.818,0,5.726,0
			c0,0.966,0,1.883,0,2.799c-4.736,0-9.474,0-14.247,0c0,0.973,0,1.892,0,2.811L48.508,68.348z"/>
		<path fill-rule="evenodd" clip-rule="evenodd" d="M91.013,48.51c0.919,0,1.837,0,2.807,0c0-0.949,0-1.86,0-2.794
			c0.981,0,1.911,0,2.876,0c0,4.686,0,9.373,0,14.089c-2.812,0-5.627,0-8.464,0c0-0.916,0-1.815,0-2.766c1.848,0,3.694,0,5.568,0
			c0-0.95,0-1.849,0-2.801c-0.896,0-1.808,0-2.774,0c0-1.947,0-3.845,0-5.743L91.013,48.51z"/>
		<path fill-rule="evenodd" clip-rule="evenodd" d="M79.681,28.75c1.886,0,3.771,0,5.711,0c0,1.886,0,3.751,0,5.616l0.013-0.013
			c-0.947,0-1.896,0-2.891,0c0,1.909,0,3.784,0,5.69c-1.89,0-3.734,0-5.63,0c0-0.96,0-1.919,0-2.879l-0.014,0.013
			c0.929,0,1.856,0,2.784,0c0-0.975,0-1.883,0-2.823c-0.951,0-1.867,0-2.784,0l0.014,0.013c0-0.917,0-1.833,0-2.799
			c0.926,0,1.836,0,2.812,0c0-0.976,0-1.904,0-2.832L79.681,28.75z"/>
		<path fill-rule="evenodd" clip-rule="evenodd" d="M28.737,25.847c0.918,0,1.836,0,2.823,0c0-2.839,0-5.641,0-8.442l-0.013,0.013
			c0.94,0,1.88,0,2.821,0l-0.013-0.013c0,1.865,0,3.731,0,5.631c0.986,0,1.905,0,2.823,0l-0.013-0.013c0,1.909,0,3.817,0,5.726
			l0.013-0.013c-1.865,0-3.731,0-5.632,0c0,0.986,0,1.904,0,2.822l0.013-0.013c-0.94,0-1.881,0-2.822,0l0.013,0.014
			c0-1.909,0.001-3.817,0.001-5.726L28.737,25.847z"/>
		<path fill-rule="evenodd" clip-rule="evenodd" d="M68.349,54.221c0.916,0,1.833,0,2.799,0c0,1.864,0,3.708,0,5.618
			c1.008,0,1.968,0,2.928,0l-0.015-0.012c0,0.959,0,1.919,0,2.928c-0.993,0-1.935,0-2.903,0c0,1.902,0,3.755,0,5.607l0.014-0.013
			c-0.941,0.005-1.882,0.008-2.822,0.013c0-2.832,0-5.666,0-8.55c-0.965,0-1.875,0-2.777,0c0-0.95,0-1.85,0-2.799
			c0.935,0,1.845,0,2.791,0c0-0.97,0-1.888,0-2.807L68.349,54.221z"/>
		<path fill-rule="evenodd" clip-rule="evenodd" d="M74.09,42.857c-1.622,0.009-3.243,0.018-4.864,0.026
			c-0.267,0.001-0.53,0-0.847,0c0,1.861,0,3.708,0,5.586c-0.959,0-1.869,0-2.813,0c0-0.903,0-1.802,0-2.752
			c-0.944,0-1.855,0-2.797,0c0-0.961,0-1.871,0-2.815c0.904,0,1.803,0,2.753,0c0-0.943,0-1.854,0-2.815c1.897,0,3.743,0,5.624,0
			c0-0.98,0-1.911,0-2.926c0.992,0,1.951,0,2.911,0.001c0,0-0.016-0.013-0.016-0.013c0.009,1.674,0.017,3.349,0.026,5.024
			c0.002,0.233,0.007,0.465,0.009,0.698C74.076,42.873,74.09,42.857,74.09,42.857z"/>
		<path fill-rule="evenodd" clip-rule="evenodd" d="M11.706,59.838c0-0.939,0-1.88,0-2.819l-0.013,0.013c1.883,0,3.765,0,5.697,0
			c0-0.937,0-1.846,0-2.786c1.893,0,3.736,0,5.632,0c0,0.928,0,1.856,0,2.785l0.014-0.013c-0.929,0-1.858,0-2.822,0
			c0,0.986,0,1.904,0,2.821l0.013-0.013c-2.845,0-5.69-0.001-8.534-0.001L11.706,59.838z"/>
		<path fill-rule="evenodd" clip-rule="evenodd" d="M93.819,28.737c0,0.918,0,1.836,0,2.804c0.978,0,1.92,0,2.886,0
			c0,0.949,0,1.848,0,2.829c-1.886,0-3.781,0-5.676,0c-0.001,0,0.015,0.013,0.015,0.013c0-0.918,0-1.836,0-2.805
			c-0.949,0-1.858,0-2.803,0c0-0.959,0-1.868,0-2.828c1.864,0,3.728,0,5.592,0L93.819,28.737z"/>
		<path fill-rule="evenodd" clip-rule="evenodd" d="M20.227,48.496c-0.941,0-1.882-0.001-2.823-0.001l0.013,0.014
			c0-0.929,0-1.859,0-2.822c-1.018,0-1.967,0-2.917,0l0.013,0.013c-0.004-0.941-0.008-1.882-0.013-2.823c2.829,0,5.658,0,8.499,0
			c0,0.966,0,1.875,0,2.832c-0.937,0-1.847,0-2.786,0c0,0.966,0,1.883,0,2.8L20.227,48.496z"/>
		<path fill-rule="evenodd" clip-rule="evenodd" d="M71.17,20.212c-0.918,0-1.836,0-2.803,0c0,1.882,0,3.728,0,5.6
			c-0.947,0-1.847,0-2.762,0c-0.013-0.023-0.05-0.062-0.05-0.102c0.001-2.774,0.007-5.549,0.012-8.325
			c0-0.001-0.013,0.015-0.013,0.014c1.851,0,3.701,0,5.602,0c0,0.971,0,1.899,0,2.827L71.17,20.212z"/>
		<path fill-rule="evenodd" clip-rule="evenodd" d="M62.729,34.354c0,1.886,0,3.771,0,5.711c-1.918,0-3.814,0-5.712,0l0.014,0.014
			c0-0.958,0-1.917,0-2.923c0.957,0,1.866,0,2.821,0c0-0.957,0-1.866,0-2.79c0.997,0,1.943,0,2.892,0L62.729,34.354z"/>
		<path fill-rule="evenodd" clip-rule="evenodd" d="M31.573,93.802c-0.919,0-1.837,0-2.806,0c0,0.979,0,1.923,0,2.895
			c-0.991,0-1.931,0-2.9,0c0-1.876,0-3.753,0-5.653c1.879,0,3.745,0,5.693,0c0,0.919,0,1.845,0,2.773
			C31.56,93.816,31.573,93.802,31.573,93.802z"/>
		<path fill-rule="evenodd" clip-rule="evenodd" d="M11.705,51.397c-2.79,0-5.579,0-8.401,0c0-0.957,0-1.897,0-2.888
			c2.8,0,5.601,0,8.401,0l-0.014-0.014c0,0.972,0,1.944,0,2.917L11.705,51.397z"/>
		<path fill-rule="evenodd" clip-rule="evenodd" d="M37.165,91.009c0,1.884,0,3.766,0,5.683c-1.853,0-3.695,0-5.592,0
			c0-0.945,0-1.917,0-2.89c0,0-0.013,0.015-0.013,0.015c0.915,0,1.829,0,2.79,0c0-0.929,0-1.835,0-2.793c0.974,0,1.901,0,2.828,0
			L37.165,91.009z"/>
		<path fill-rule="evenodd" clip-rule="evenodd" d="M48.508,23.037c0-1.855,0-3.71,0-5.62c1.919,0,3.816,0,5.713,0l-0.013-0.013
			c0,0.94,0,1.881,0,2.822l0.013-0.013c-0.929,0-1.855,0-2.833,0c0,0.974,0,1.883,0,2.809c-0.997,0-1.944,0-2.893,0L48.508,23.037z"
			/>
		<path fill-rule="evenodd" clip-rule="evenodd" d="M91.044,68.376c0-1.864,0-3.731,0-5.618c0.918,0,1.816,0,2.767,0
			c0,0.91,0,1.819,0,2.779c0.99,0,1.931,0,2.896,0c0,0.95,0,1.848,0,2.827c-1.889,0-3.783,0-5.677,0
			C91.028,68.364,91.044,68.376,91.044,68.376z"/>
		<path fill-rule="evenodd" clip-rule="evenodd" d="M59.825,23.023c0,0.918,0,1.836,0,2.809c-1.886,0-3.752,0-5.617,0l0.013,0.013
			c0-1.877,0-3.754,0-5.631l-0.013,0.013c0.929,0,1.855,0,2.833,0c0,0.96,0,1.87,0,2.809c0.965,0,1.881,0,2.799,0L59.825,23.023z"/>
		<path fill-rule="evenodd" clip-rule="evenodd" d="M28.737,6.087c1.871-0.005,3.742-0.012,5.613-0.017
			c0,0.001-0.015-0.013-0.015-0.013c0,1.864,0,3.728,0,5.616c-0.913,0-1.811,0-2.757,0c0-0.899,0-1.809,0-2.767
			c-0.958,0-1.867,0-2.827,0c0-0.976,0-1.904,0-2.833L28.737,6.087z"/>
		<path fill-rule="evenodd" clip-rule="evenodd" d="M11.704,28.75c0-0.948,0-1.896,0-2.878c1.894,0,3.769,0,5.676,0
			c0,0.936,0,1.875,0,2.865c-1.9,0-3.795,0-5.689,0L11.704,28.75z"/>
		<path fill-rule="evenodd" clip-rule="evenodd" d="M90.995,37.196c1.896,0,3.791,0,5.711,0c0,0.944,0,1.873,0,2.84
			c-1.866,0-3.741,0-5.697,0c0-0.939,0-1.896,0-2.855C91.01,37.181,90.995,37.196,90.995,37.196z"/>
		<path fill-rule="evenodd" clip-rule="evenodd" d="M28.75,25.833c-0.948,0-1.896,0-2.878,0c0-1.863,0-3.707,0-5.582
			c0.936,0,1.875,0,2.865,0c0,1.869,0,3.732,0,5.595C28.737,25.847,28.75,25.833,28.75,25.833z"/>
		<path fill-rule="evenodd" clip-rule="evenodd" d="M62.729,17.404c0,1.854,0,3.709,0,5.619c-0.981,0-1.942,0-2.904,0l0.015,0.013
			c0-1.877,0-3.754,0-5.631l-0.014,0.013c0.973,0,1.944,0,2.917,0L62.729,17.404z"/>
		<path fill-rule="evenodd" clip-rule="evenodd" d="M40.082,6.073c-1.916-0.004-3.831-0.01-5.747-0.016c0,0,0.015,0.014,0.015,0.013
			c0-0.915,0-1.83,0-2.772c1.92,0,3.794,0,5.719,0c0,0.934,0,1.861,0,2.789L40.082,6.073z"/>
		<path fill-rule="evenodd" clip-rule="evenodd" d="M68.348,8.895c1.882,0,3.767,0,5.685,0c0,0.923,0,1.832,0,2.772
			c-1.869,0-3.743,0-5.672,0c0-0.929,0-1.857,0-2.786L68.348,8.895z"/>
		<path fill-rule="evenodd" clip-rule="evenodd" d="M91.012,71.172c0.917,0,1.834,0,2.783,0c0,1.896,0,3.771,0,5.7
			c-0.927,0-1.856,0-2.785,0l0.015,0.012c0-1.908,0-3.816,0-5.727L91.012,71.172z"/>
		<path fill-rule="evenodd" clip-rule="evenodd" d="M48.508,71.172c0-0.94,0-1.882,0-2.824l-0.013,0.015c1.896,0,3.79,0,5.687,0
			c0,0.96,0,1.869,0,2.795c-1.918,0-3.803,0-5.687,0L48.508,71.172z"/>
		<path fill-rule="evenodd" clip-rule="evenodd" d="M11.706,57.019c-1.854,0-3.707,0-5.593,0c0-0.927,0-1.837,0-2.796
			c1.863,0,3.727,0,5.591,0L11.69,54.21c0,0.939,0.001,1.881,0.002,2.821L11.706,57.019z"/>
		<path fill-rule="evenodd" clip-rule="evenodd" d="M82.504,93.821c-1.852,0-3.701,0-5.605,0c0-0.948,0-1.889,0-2.829
			c0.001,0-0.014,0.015-0.012,0.015c1.872,0.007,3.744,0.012,5.617,0.017l-0.015-0.012c0,0.94,0,1.881,0,2.821L82.504,93.821z"/>
		<path fill-rule="evenodd" clip-rule="evenodd" d="M85.392,34.366c1.884,0.006,3.768,0.011,5.651,0.017
			c0.001,0-0.015-0.013-0.014-0.013c-0.011,0.942-0.021,1.884-0.032,2.826c-0.002,0,0.013-0.015,0.012-0.015
			c-1.851,0.001-3.701,0.001-5.604,0.001c0-0.972,0-1.901,0-2.829L85.392,34.366z"/>
		<path fill-rule="evenodd" clip-rule="evenodd" d="M11.676,62.763c0.929,0,1.858,0,2.809,0c0,1.854,0,3.684,0,5.556
			c-0.901,0-1.811,0-2.796,0c0-1.848,0-3.71,0.001-5.571L11.676,62.763z"/>
		<path fill-rule="evenodd" clip-rule="evenodd" d="M8.894,71.157c-0.917,0-1.833,0-2.782,0c0-1.862,0-3.705,0-5.581
			c0.905,0,1.813,0,2.769,0c0,1.869,0,3.731,0,5.594L8.894,71.157z"/>
		<path fill-rule="evenodd" clip-rule="evenodd" d="M71.156,28.737c0,1.854,0,3.708,0,5.616c-0.948,0-1.878,0-2.807,0l0.014,0.013
			c0-1.854,0-3.708,0-5.616c0.947,0,1.878,0,2.808,0L71.156,28.737z"/>
		<path fill-rule="evenodd" clip-rule="evenodd" d="M17.404,48.495c0,0.949,0,1.899,0,2.903c-0.982,0-1.942,0-2.903,0l0.013,0.015
			c0-0.973,0-1.945,0-2.917L14.5,48.508c0.972,0,1.944,0,2.917,0L17.404,48.495z"/>
		<path fill-rule="evenodd" clip-rule="evenodd" d="M71.186,96.706c0-0.952,0-1.884,0-2.846c0.942,0,1.882,0,2.854,0
			c0,0.94,0,1.879,0,2.846C73.098,96.706,72.169,96.706,71.186,96.706z"/>
		<path fill-rule="evenodd" clip-rule="evenodd" d="M93.833,28.75c0-0.947,0-1.895,0-2.877c0.956,0,1.896,0,2.866,0
			c0,0.934,0,1.873,0,2.864c-0.961,0-1.922,0-2.88,0L93.833,28.75z"/>
		<path fill-rule="evenodd" clip-rule="evenodd" d="M71.171,28.75c0-0.947,0-1.895,0-2.877c0.955,0,1.895,0,2.865,0
			c0,0.934,0,1.873,0,2.864c-0.961,0-1.92,0-2.88,0L71.171,28.75z"/>
		<path fill-rule="evenodd" clip-rule="evenodd" d="M40.065,65.54c0,0.916,0,1.833,0,2.78c-0.955,0-1.893,0-2.864,0
			c0-0.901,0-1.809,0-2.766c0.961,0,1.919,0,2.878,0L40.065,65.54z"/>
		<path fill-rule="evenodd" clip-rule="evenodd" d="M8.88,71.17c0.917,0,1.833,0,2.784,0c0,0.957,0,1.896,0,2.865
			c-0.903,0-1.811,0-2.771,0c0-0.96,0-1.92,0-2.878L8.88,71.17z"/>
		<path fill-rule="evenodd" clip-rule="evenodd" d="M79.695,28.736c-0.917,0-1.833,0-2.783,0c0-0.956,0-1.896,0-2.866
			c0.901,0,1.81,0,2.769,0c0,0.962,0,1.92,0,2.879C79.681,28.75,79.695,28.736,79.695,28.736z"/>
		<path fill-rule="evenodd" clip-rule="evenodd" d="M40.067,74.06c0,0.916,0,1.833,0,2.783c-0.956,0-1.895,0-2.866,0
			c0-0.902,0-1.812,0-2.771c0.962,0,1.921,0,2.88,0L40.067,74.06z"/>
		<path fill-rule="evenodd" clip-rule="evenodd" d="M54.208,25.832c0,0.972,0,1.945,0,2.917l0.013-0.014c-0.94,0-1.882,0-2.823,0
			l0.014,0.013c0-0.961,0-1.921,0-2.903c0.974,0,1.891,0,2.81,0L54.208,25.832z"/>
		<path fill-rule="evenodd" clip-rule="evenodd" d="M20.237,28.706c0-0.952,0-1.88,0-2.838c0.925,0,1.834,0,2.768,0
			c0,0.942,0,1.871,0,2.838C22.104,28.706,21.195,28.706,20.237,28.706z"/>
		<path fill-rule="evenodd" clip-rule="evenodd" d="M71.156,20.226c0.948,0,1.895,0,2.878,0c0,0.924,0,1.833,0,2.772
			c-0.934,0-1.873,0-2.864,0c0-0.93,0-1.857,0-2.786L71.156,20.226z"/>
		<path fill-rule="evenodd" clip-rule="evenodd" d="M34.367,17.417c0-0.949,0-1.898,0-2.904c0.951,0,1.881,0,2.81,0l-0.013-0.013
			c0,0.972,0,1.944,0,2.916l0.013-0.013c-0.941,0-1.882,0-2.823,0L34.367,17.417z"/>
		<path fill-rule="evenodd" clip-rule="evenodd" d="M31.56,17.405c-0.917,0-1.833,0-2.784,0c0-0.956,0-1.895,0-2.866
			c0.903,0,1.811,0,2.771,0c0,0.962,0,1.921,0,2.879L31.56,17.405z"/>
		<path fill-rule="evenodd" clip-rule="evenodd" d="M48.509,93.833c-0.001-0.94-0.001-1.881-0.001-2.821l-0.013,0.014
			c0.972,0,1.944,0,2.916,0l-0.014-0.014c0,0.94,0,1.881,0,2.821l0.015-0.012c-0.973,0-1.944-0.002-2.917-0.002L48.509,93.833z"/>
		<path fill-rule="evenodd" clip-rule="evenodd" d="M74.035,6.058c-0.965,0-1.894,0-2.847,0c0-0.919,0-1.816,0-2.751
			c0.933,0,1.873,0,2.847,0C74.035,4.204,74.035,5.113,74.035,6.058z"/>
		<path fill-rule="evenodd" clip-rule="evenodd" d="M48.496,93.819c0,0.947,0,1.896,0,2.877c-0.924,0-1.833,0-2.772,0
			c0-0.933,0-1.874,0-2.863c0.931,0,1.858,0,2.786,0L48.496,93.819z"/>
		<path fill-rule="evenodd" clip-rule="evenodd" d="M28.75,6.073c-0.947,0-1.895,0-2.877,0c0-0.924,0-1.833,0-2.772
			c0.934,0,1.873,0,2.864,0c0,0.931,0,1.858,0,2.786L28.75,6.073z"/>
		<path fill-rule="evenodd" clip-rule="evenodd" d="M11.692,59.825c-0.005,0.978-0.01,1.957-0.016,2.937
			c-0.001,0.001,0.013-0.015,0.013-0.015c-0.915,0-1.829,0-2.772,0c0-0.981,0-1.921,0-2.909c0.934,0,1.861,0,2.788,0L11.692,59.825z
			"/>
		<path fill-rule="evenodd" clip-rule="evenodd" d="M20.228,62.741c0-0.972-0.001-1.943-0.001-2.915l-0.013,0.013
			c0.94,0,1.881,0,2.822,0l-0.014-0.012c0,0.948,0,1.898,0,2.9c-0.949,0-1.878,0-2.808,0L20.228,62.741z"/>
		<path fill-rule="evenodd" clip-rule="evenodd" d="M57.028,42.875c-0.94,0-1.88,0.001-2.82,0.001l0.013,0.013
			c0-0.929,0-1.858,0-2.809c0.974,0,1.892,0,2.81,0l-0.014-0.014c0,0.941,0,1.882-0.001,2.823L57.028,42.875z"/>
		<path fill-rule="evenodd" clip-rule="evenodd" d="M11.704,54.223c0-0.941,0-1.884,0.001-2.825l-0.014,0.015
			c0.941,0,1.882,0,2.823,0l-0.013-0.015c0,0.919,0,1.836,0,2.812c-0.952,0-1.881,0-2.811,0L11.704,54.223z"/>
		<path fill-rule="evenodd" clip-rule="evenodd" d="M54.208,42.876c0,0.918,0,1.836,0,2.81c-0.952,0-1.882,0-2.811,0l0.014,0.013
			c0-0.929,0-1.859,0-2.81c0.974,0,1.891,0,2.81,0L54.208,42.876z"/>
		<path fill-rule="evenodd" clip-rule="evenodd" d="M76.884,37.164c-0.946-0.005-1.894-0.01-2.842-0.015
			c-0.001,0,0.015,0.013,0.015,0.013c-0.001-0.916-0.001-1.83-0.001-2.794c0.974,0,1.9,0,2.828,0l-0.014-0.013
			c0,0.94,0,1.881,0,2.823L76.884,37.164z"/>
		<path fill-rule="evenodd" clip-rule="evenodd" d="M57.016,42.889c0.916,0,1.833,0,2.783,0c0,0.925,0,1.833,0,2.772
			c-0.903,0-1.811,0-2.771,0c0-0.931,0-1.858,0-2.786L57.016,42.889z"/>
		<path fill-rule="evenodd" clip-rule="evenodd" d="M54.223,14.502c-0.917,0-1.833,0-2.784,0c0-0.925,0-1.833,0-2.773
			c0.902,0,1.811,0,2.771,0c0,0.931,0,1.858,0,2.786L54.223,14.502z"/>
		<path fill-rule="evenodd" clip-rule="evenodd" d="M76.885,45.687c-0.915,0-1.83,0-2.797,0c0-0.951,0-1.889,0.002-2.83
			c0,0-0.014,0.016-0.014,0.015c0.915,0,1.829,0,2.796,0c0,0.974,0,1.901,0,2.829C76.872,45.7,76.885,45.687,76.885,45.687z"/>
		<path fill-rule="evenodd" clip-rule="evenodd" d="M91.025,48.496c-0.947-0.004-1.895-0.009-2.842-0.016
			c-0.002,0,0.014,0.014,0.014,0.013c-0.001-0.915-0.001-1.829-0.001-2.771c0.952,0,1.859,0,2.816,0c0,0.934,0,1.861,0,2.788
			L91.025,48.496z"/>
		<path fill-rule="evenodd" clip-rule="evenodd" d="M11.705,48.509c0-0.941,0-1.883,0-2.824l-0.014,0.014c0.941,0,1.882,0,2.823,0
			L14.5,45.686c0,0.94,0,1.881,0,2.822l0.013-0.013c-0.94,0-1.881,0-2.823,0L11.705,48.509z"/>
		<path fill-rule="evenodd" clip-rule="evenodd" d="M40.079,65.555c0-0.943,0-1.884,0-2.825l-0.013,0.013c0.93,0,1.859,0,2.81,0
			c0,0.975,0,1.891,0,2.81l0.013-0.012c-0.941,0-1.882,0-2.825,0L40.079,65.555z"/>
		<path fill-rule="evenodd" clip-rule="evenodd" d="M62.729,31.558c0.917,0,1.832,0,2.827,0c0,0.941,0,1.866-0.001,2.792
			c0,0,0.013-0.015,0.013-0.015c-0.946,0.007-1.893,0.013-2.839,0.02l0.015,0.013c0-0.941,0-1.881,0-2.822L62.729,31.558z"/>
		<path fill-rule="evenodd" clip-rule="evenodd" d="M20.198,65.571c0.929,0,1.858,0,2.811,0c0,0.95,0,1.879-0.001,2.81
			c0,0,0.014-0.014,0.013-0.014c-0.913,0-1.826,0-2.81,0c0-0.963,0-1.887,0.001-2.811L20.198,65.571z"/>
		<path fill-rule="evenodd" clip-rule="evenodd" d="M20.214,62.728c-0.005,0.947-0.01,1.896-0.016,2.844
			c-0.001,0,0.013-0.015,0.013-0.015c-0.915,0-1.829,0-2.772,0c0-0.95,0-1.857,0-2.815c0.934,0,1.861,0,2.788,0L20.214,62.728z"/>
		<path fill-rule="evenodd" clip-rule="evenodd" d="M88.215,71.172c0-0.914,0-1.831,0-2.796c0.95,0,1.889,0,2.828,0
			c0.001,0-0.015-0.012-0.014-0.012c-0.006,0.936-0.012,1.872-0.018,2.808l0.013-0.015c-0.94,0-1.881,0-2.822,0L88.215,71.172z"/>
		<path fill-rule="evenodd" clip-rule="evenodd" d="M23.022,57.03c0.917,0,1.834,0,2.784,0c0,0.927,0,1.836,0,2.797
			c-0.927,0-1.855,0-2.784,0l0.014,0.012c0-0.94,0-1.881,0-2.821L23.022,57.03z"/>
		<path fill-rule="evenodd" clip-rule="evenodd" d="M68.35,34.353c0,0.916,0,1.83,0,2.781c-0.919,0-1.825,0-2.783,0
			c0-0.921,0-1.859,0.001-2.799c0,0-0.013,0.015-0.013,0.015c0.937,0.005,1.872,0.011,2.809,0.016L68.35,34.353z"/>
		<path fill-rule="evenodd" clip-rule="evenodd" fill="#FFFFFF" d="M48.495,71.157c1.884,0,3.769,0,5.687,0c0-0.926,0-1.835,0-2.795
			c-1.896,0-3.791,0-5.687,0c0-0.919,0-1.838,0-2.811c4.773,0,9.511,0,14.247,0l-0.013-0.012c0,0.929,0,1.857,0,2.822
			c0.987,0,1.904,0,2.822,0l-0.014-0.013c0,0.929,0,1.857,0,2.822c0.987,0,1.905,0,2.824,0l-0.014-0.015c0,0.95,0,1.898,0,2.897
			c0.941,0,1.853,0,2.788,0c0,0.957,0,1.866,0,2.81c-0.915,0-1.813,0-2.763,0c0,0.943,0,1.853,0,2.829c-0.977,0-1.907,0-2.836,0
			c0-1.854,0-3.709,0-5.596c-0.931,0-1.84,0-2.785,0c0,0.907,0,1.807,0,2.742c-1.911,0-3.788,0-5.736,0c0-0.919,0-1.847,0-2.778
			c0.928,0,1.856,0,2.786,0c0-1.927,0-3.804,0-5.671c-0.941,0-1.851,0-2.774,0c0,1.918,0,3.802,0,5.686c-1.854,0-3.707,0-5.592,0
			c0,0.929,0,1.838,0,2.783c0.905,0,1.804,0,2.753,0c0,0.943,0,1.853,0,2.812c1.897,0,3.742,0,5.616,0c0,1.928,0,3.804,0,5.705
			c-2.789,0-5.56,0-8.38,0c0-0.938,0-1.879,0-2.873c-1.948,0-3.844,0-5.74,0c0-0.919,0-1.836,0-2.806c0.942,0,1.852,0,2.809,0
			C48.495,76.818,48.495,73.989,48.495,71.157z"/>
		<path fill-rule="evenodd" clip-rule="evenodd" fill="#FFFFFF" d="M71.157,68.362c0-1.853,0-3.705,0-5.607c0.969,0,1.91,0,2.903,0
			c0-1.009,0-1.969,0-2.928c1.854,0,3.706,0,5.592,0c0,3.778,0,7.523,0,11.304c-1.834,0-3.679,0-5.592,0c0-0.924,0-1.853,0-2.781
			c0.928,0,1.854,0,2.786,0c0-0.96,0-1.867,0-2.769c-0.941,0-1.849,0-2.774,0c0,0.95,0,1.867,0,2.783
			C73.102,68.362,72.13,68.362,71.157,68.362z"/>
		<path fill-rule="evenodd" clip-rule="evenodd" fill="#FFFFFF" d="M74.088,82.463c0-2.803,0-5.574,0-8.37c2.791,0,5.562,0,8.37,0
			c0,2.771,0,5.555,0,8.37C79.69,82.463,76.908,82.463,74.088,82.463z M79.652,79.667c0-0.95,0-1.857,0-2.752
			c-0.942,0-1.852,0-2.75,0c0,0.937,0,1.833,0,2.752C77.826,79.667,78.723,79.667,79.652,79.667z"/>
		<path fill-rule="evenodd" clip-rule="evenodd" fill="#FFFFFF" d="M62.729,88.216c0-2.822,0-5.645,0-8.536c0.964,0,1.893,0,2.822,0
			c0,2.821,0,5.644,0,8.536C64.588,88.216,63.659,88.216,62.729,88.216z"/>
		<path fill-rule="evenodd" clip-rule="evenodd" fill="#FFFFFF" d="M88.202,71.157c0.941,0,1.882,0,2.822,0c0,1.91,0,3.818,0,5.727
			c-1.851,0-3.703,0-5.59,0c0-0.934,0-1.843,0-2.801c0.898,0,1.808,0,2.768,0C88.202,73.077,88.202,72.117,88.202,71.157z"/>
		<path fill-rule="evenodd" clip-rule="evenodd" fill="#FFFFFF" d="M62.743,91.025c-0.948,0-1.896,0-2.877,0c0-0.94,0-1.85,0-2.824
			c0.958,0,1.917,0,2.877,0C62.743,89.142,62.743,90.083,62.743,91.025z"/>
		<path fill-rule="evenodd" clip-rule="evenodd" fill="#FFFFFF" d="M68.349,68.362c0.94-0.005,1.881-0.008,2.822-0.013
			c0,0.917,0,1.836,0,2.808c-0.964,0-1.894,0-2.822,0l0.014,0.015c0-0.94,0-1.882,0-2.822L68.349,68.362z"/>
		<path fill-rule="evenodd" clip-rule="evenodd" fill="#FFFFFF" d="M82.504,57.019c-0.917,0-1.833,0-2.783,0
			c0-0.925,0-1.833,0-2.772c0.901,0,1.81,0,2.77,0c0,0.93,0,1.858,0,2.785L82.504,57.019z"/>
		<path fill-rule="evenodd" clip-rule="evenodd" fill="#FFFFFF" d="M20.214,48.508c0-0.917,0-1.834,0-2.8c0.939,0,1.849,0,2.786,0
			c0-0.958,0-1.866,0-2.832c-2.841,0-5.67,0-8.499,0l0.013,0.013c0-0.941,0-1.881,0-2.822l-0.013,0.014
			c3.573-0.002,7.146-0.005,10.718-0.008c0.203,0,0.406-0.006,0.609-0.009c0,0-0.015-0.013-0.015-0.013c0,0.919,0,1.838,0,2.794
			c1.92,0,3.798,0,5.727,0c0-1.868,0-3.746,0-5.649c0.95,0,1.849,0,2.799,0c0,0.931,0,1.874,0,2.871c1.948,0,3.845,0,5.742,0
			c0,0.918,0,1.835,0,2.803c-1.911,0-3.788,0-5.699,0c0,0.948,0,1.847,0,2.797c-0.942,0-1.853,0-2.813,0c0,0.959,0,1.869,0,2.842
			C27.749,48.508,23.981,48.508,20.214,48.508z"/>
		<path fill-rule="evenodd" clip-rule="evenodd" fill="#FFFFFF" d="M68.362,54.207c0,0.919,0,1.837,0,2.807
			c-0.946,0-1.856,0-2.791,0c0,0.949,0,1.849,0,2.799c0.902,0,1.812,0,2.777,0c0,2.884,0,5.718,0,8.55l0.014-0.013
			c-0.941,0-1.882,0-2.824,0l0.014,0.013c0-0.929,0-1.86,0-2.822c-0.986,0-1.904,0-2.822,0l0.013,0.012c0-0.916,0-1.833,0-2.799
			c-1.907,0-3.784,0-5.726,0c0-1.007,0-1.967,0-2.926c0.918,0,1.835,0,2.803,0c0-1.867,0-3.712,0-5.62
			C62.699,54.207,65.53,54.207,68.362,54.207z"/>
		<path fill-rule="evenodd" clip-rule="evenodd" fill="#FFFFFF" d="M42.876,65.552c0-0.919,0-1.835,0-2.81c-0.951,0-1.88,0-2.81,0
			c0-0.949,0-1.898,0-2.898c0.945,0,1.856,0,2.8,0c0-1.886,0-3.722,0-5.593c0.943,0,1.853,0,2.815,0c0,0.9,0,1.812,0,2.747
			c0.95,0,1.848,0,2.798,0c0-0.901,0-1.812,0-2.752c0.992,0,1.933,0,2.91,0c0,0.906,0,1.807,0,2.756c1.879,0,3.725,0,5.641,0
			c0,0.979,0,1.909,0,2.837c-1.853,0-3.705,0-5.608,0c0,0.957,0,1.898,0,2.867c-0.99,0-1.93,0-2.904,0c0-0.939,0-1.869,0-2.835
			c-0.941,0-1.851,0-2.809,0c0,1.863,0,3.739,0,5.681C44.733,65.552,43.805,65.552,42.876,65.552z"/>
		<path fill-rule="evenodd" clip-rule="evenodd" fill="#FFFFFF" d="M62.743,31.545c0,0.941,0,1.881,0,2.822
			c-0.948,0-1.895,0-2.892,0c0,0.924,0,1.833,0,2.79c-0.955,0-1.864,0-2.821,0c0,1.006,0,1.965,0,2.923c-0.918,0-1.836,0-2.81,0
			c0,0.951,0,1.88,0,2.809c-0.919,0-1.836,0-2.81,0c0,0.951,0,1.88,0,2.81c-0.972-0.004-1.943-0.01-2.916-0.015l0.014,0.013
			c-0.004-2.844-0.01-5.689-0.014-8.533c1.886,0,3.771,0,5.708,0c0-0.931,0-1.842,0-2.787c0.949,0,1.849,0,2.799,0
			c0-0.943,0-1.854,0-2.833C58.95,31.545,60.846,31.545,62.743,31.545z"/>
		<path fill-rule="evenodd" clip-rule="evenodd" fill="#FFFFFF" d="M37.164,31.545c2.821,0,5.644,0,8.521,0c0,0.963,0,1.893,0,2.822
			l0.014-0.013c-0.928,0-1.856,0-2.783,0c0,0.974,0,1.883,0,2.823c0.949,0,1.867,0,2.783,0l-0.014-0.013c0,1.882,0,3.765,0,5.683
			c-0.919,0-1.828,0-2.786,0c0-0.897,0-1.807,0-2.767c-0.977,0-1.904,0-2.833,0c0-1.884,0-3.768,0-5.701c-0.955,0-1.896,0-2.902,0
			C37.164,33.402,37.164,32.474,37.164,31.545z"/>
		<path fill-rule="evenodd" clip-rule="evenodd" fill="#FFFFFF" d="M34.367,51.413c0-0.949,0-1.899,0-2.9c0.932,0,1.842,0,2.787,0
			c0-0.95,0-1.849,0-2.785c1.912,0,3.789,0,5.698,0c0,0.902,0,1.812,0,2.757c-0.907,0-1.806,0-2.757,0c0,0.975,0,1.917,0,2.914
			c-1.948,0-3.845,0-5.742,0L34.367,51.413z"/>
		<path fill-rule="evenodd" clip-rule="evenodd" fill="#FFFFFF" d="M37.176,57.031c0-0.916,0-1.833,0-2.783c0.956,0,1.896,0,2.866,0
			c0,0.902,0,1.811,0,2.771c-0.961,0-1.92,0-2.879,0L37.176,57.031z"/>
		<path fill-rule="evenodd" clip-rule="evenodd" fill="#FFFFFF" d="M48.496,45.684c0,0.917,0,1.833,0,2.783
			c-0.924,0-1.833,0-2.772,0c0-0.902,0-1.81,0-2.77c0.931,0,1.858,0,2.786,0L48.496,45.684z"/>
		<path fill-rule="evenodd" clip-rule="evenodd" fill="#FFFFFF" d="M45.685,34.367c0.918,0,1.837,0,2.823,0c0,0.951,0,1.88,0,2.81
			c-0.94-0.004-1.882-0.009-2.823-0.013l0.014,0.013c0-0.941,0-1.882,0-2.823L45.685,34.367z"/>
		<path fill-rule="evenodd" clip-rule="evenodd" fill="#FFFFFF" d="M37.164,88.216c0-0.917,0-1.833,0-2.801c0.97,0,1.91,0,2.899,0
			c0-0.986,0-1.927,0-2.926c1.911,0,3.773,0,5.636,0c0,1.887,0,3.772,0,5.727C42.83,88.216,39.997,88.216,37.164,88.216z"/>
		<path fill-rule="evenodd" clip-rule="evenodd" fill="#FFFFFF" d="M51.411,91.025c-0.972,0-1.944,0-2.916,0
			c0-0.919,0-1.835,0-2.783c0.971,0,1.911,0,2.916,0C51.411,89.169,51.411,90.098,51.411,91.025z"/>
		<path fill-rule="evenodd" clip-rule="evenodd" fill="#FFFFFF" d="M54.24,91.04c0-0.929,0-1.856,0-2.808c0.914,0,1.812,0,2.746,0
			c0,0.9,0,1.807,0,2.796c-0.909,0-1.834,0-2.762-0.003L54.24,91.04z"/>
		<path fill-rule="evenodd" clip-rule="evenodd" fill="#FFFFFF" d="M51.397,93.833c0-0.94,0-1.881,0-2.821
			c0.947,0.009,1.895,0.019,2.842,0.028c0.001,0-0.015-0.015-0.015-0.015c0.001,0.917,0.001,1.831,0.001,2.808
			C53.253,93.833,52.325,93.833,51.397,93.833z"/>
		<path fill-rule="evenodd" clip-rule="evenodd" fill="#FFFFFF" d="M79.695,20.191c0-4.711,0-9.375,0-14.075c4.694,0,9.38,0,14.1,0
			c0,4.674,0,9.36,0,14.075C89.108,20.191,84.422,20.191,79.695,20.191z M90.997,8.921c-2.851,0-5.663,0-8.464,0
			c0,2.846,0,5.659,0,8.465c2.839,0,5.641,0,8.464,0C90.997,14.56,90.997,11.758,90.997,8.921z"/>
		<path fill-rule="evenodd" clip-rule="evenodd" fill="#FFFFFF" d="M20.187,93.807c-4.707,0-9.382,0-14.082,0
			c0-4.696,0-9.37,0-14.084c4.676,0,9.362,0,14.082,0C20.187,84.397,20.187,89.082,20.187,93.807z M8.921,82.516
			c0,2.852,0,5.664,0,8.464c2.847,0,5.66,0,8.464,0c0-2.839,0-5.639,0-8.464C14.559,82.516,11.757,82.516,8.921,82.516z"/>
		<path fill-rule="evenodd" clip-rule="evenodd" fill="#FFFFFF" d="M6.113,6.1c4.707,0,9.381,0,14.082,0c0,4.695,0,9.37,0,14.083
			c-4.676,0-9.362,0-14.082,0C6.113,15.51,6.113,10.825,6.113,6.1z M17.377,17.389c0-2.849,0-5.662,0-8.464
			c-2.846,0-5.659,0-8.465,0c0,2.839,0,5.641,0,8.464C11.739,17.389,14.541,17.389,17.377,17.389z"/>
		<path fill-rule="evenodd" clip-rule="evenodd" fill="#FFFFFF" d="M25.844,37.163c-1.852,0-3.703,0-5.589,0
			c0-0.922,0-1.831,0-2.771c1.837,0,3.681,0,5.576,0c0,0.928,0,1.856,0,2.784L25.844,37.163z"/>
		<path fill-rule="evenodd" clip-rule="evenodd" fill="#FFFFFF" d="M31.544,31.558c0-0.917,0-1.836,0-2.822c1.901,0,3.767,0,5.632,0
			c0,0.94,0,1.881,0,2.822C35.299,31.558,33.422,31.558,31.544,31.558z"/>
		<path fill-rule="evenodd" clip-rule="evenodd" fill="#FFFFFF" d="M25.831,37.176c0.946,0,1.893,0,2.875,0c0,0.95,0,1.888,0,2.876
			c-0.952,0-1.922,0-2.893,0c0,0,0.015,0.013,0.015,0.013c0.005-0.968,0.011-1.935,0.016-2.902L25.831,37.176z"/>
		<path fill-rule="evenodd" clip-rule="evenodd" fill="#FFFFFF" d="M11.705,40.08c0-0.949,0-1.898,0-2.916c0.95,0,1.879,0,2.809,0
			c-0.004,0.972-0.008,1.944-0.013,2.917l0.013-0.014c-0.94,0-1.881,0-2.823,0L11.705,40.08z"/>
		<path fill-rule="evenodd" clip-rule="evenodd" fill="#FFFFFF" d="M28.736,31.545c0.94,0,1.881,0,2.822,0c0,0.917,0,1.834,0,2.783
			c-0.939,0-1.848,0-2.822,0C28.736,33.401,28.736,32.473,28.736,31.545z"/>
		<path fill-rule="evenodd" clip-rule="evenodd" fill="#FFFFFF" d="M59.84,17.404c0,1.877,0,3.754,0,5.631c-0.918,0-1.834,0-2.799,0
			c0-0.939,0-1.849,0-2.809c-0.978,0-1.904,0-2.833,0c0-0.941,0-1.882,0-2.822C56.084,17.404,57.962,17.404,59.84,17.404z"/>
		<path fill-rule="evenodd" clip-rule="evenodd" fill="#FFFFFF" d="M62.743,17.417c-0.973,0-1.944,0-2.917,0
			c0-0.948,0-1.896,0-2.876c0.972,0,1.911,0,2.917,0C62.743,15.499,62.743,16.458,62.743,17.417z"/>
		<path fill-rule="evenodd" clip-rule="evenodd" fill="#FFFFFF" d="M54.221,25.845c-0.919,0-1.836,0-2.81,0c0,0.982,0,1.942,0,2.903
			c-0.949,0-1.899,0-2.916,0c0-1.932,0-3.829,0-5.726c0.948,0,1.896,0,2.893,0c0-0.926,0-1.835,0-2.809c0.978,0,1.904,0,2.833,0
			C54.221,22.091,54.221,23.968,54.221,25.845z"/>
		<path fill-rule="evenodd" clip-rule="evenodd" fill="#FFFFFF" d="M37.164,28.749c0-1.909,0-3.817,0-5.726
			c0.971,0.004,1.943,0.009,2.916,0.014l-0.013-0.014c0,0.929,0,1.858,0,2.822c0.987,0,1.905,0,2.823,0l-0.013-0.013
			c0,0.949,0,1.899,0,2.916C40.957,28.749,39.061,28.749,37.164,28.749z"/>
		<path fill-rule="evenodd" clip-rule="evenodd" fill="#FFFFFF" d="M42.876,23.037c0.94-0.005,1.881-0.01,2.822-0.014
			c0,0.918,0,1.836,0,2.81c-0.964,0-1.894,0-2.823,0l0.013,0.013c0-0.941,0-1.881,0-2.822L42.876,23.037z"/>
		<path fill-rule="evenodd" clip-rule="evenodd" fill="#FFFFFF" d="M51.397,28.736c0.941,0,1.883,0,2.823,0c0,0.917,0,1.833,0,2.783
			c-0.939,0-1.849,0-2.823,0C51.397,30.592,51.397,29.664,51.397,28.736z"/>
		<path fill-rule="evenodd" clip-rule="evenodd" fill="#FFFFFF" d="M14.514,45.699c-0.94,0-1.881,0-2.823,0
			c0.005-0.94,0.01-1.882,0.014-2.822l-0.014,0.013c0.941,0,1.882,0,2.823,0l-0.013-0.013C14.505,43.816,14.51,44.758,14.514,45.699
			z"/>
		<path fill-rule="evenodd" clip-rule="evenodd" fill="#FFFFFF" d="M11.692,31.543c0,0.917,0,1.833,0,2.784
			c-0.925,0-1.833,0-2.772,0c0-0.902,0-1.81,0-2.77c0.93,0,1.858,0,2.786,0L11.692,31.543z"/>
		<path fill-rule="evenodd" clip-rule="evenodd" fill="#FFFFFF" d="M11.705,42.876c-0.917,0-1.833,0-2.784,0
			c0-0.927,0-1.835,0-2.797c0.927,0,1.855,0,2.784,0l-0.014-0.013c0,0.941,0,1.881,0,2.822L11.705,42.876z"/>
		<path fill-rule="evenodd" clip-rule="evenodd" fill="#FFFFFF" d="M34.354,17.404c0.941,0,1.882,0,2.823,0c0,1.877,0,3.754,0,5.631
			c-0.918,0-1.836,0-2.823,0C34.354,21.135,34.354,19.27,34.354,17.404z"/>
		<path fill-rule="evenodd" clip-rule="evenodd" fill="#FFFFFF" d="M37.164,17.417c0-0.972,0-1.944,0-2.916c0.948,0,1.896,0,2.876,0
			c0,0.971,0,1.911,0,2.916C39.082,17.417,38.123,17.417,37.164,17.417z"/>
		<path fill-rule="evenodd" clip-rule="evenodd" fill="#FFFFFF" d="M40.08,23.037c0-0.917,0-1.834,0-2.784c0.927,0,1.835,0,2.797,0
			c0,0.927,0,1.855,0,2.784l0.013-0.014c-0.941,0-1.881,0-2.823,0L40.08,23.037z"/>
		<path fill-rule="evenodd" clip-rule="evenodd" fill="#FFFFFF" d="M82.489,93.833c0-0.94,0-1.881,0-2.821c0.948,0,1.896,0,2.877,0
			c0,0.94,0,1.85,0,2.821C84.408,93.833,83.448,93.833,82.489,93.833z"/>
		<path fill-rule="evenodd" clip-rule="evenodd" fill="#FFFFFF" d="M76.87,37.177c0-0.941,0-1.882,0-2.823c0.917,0,1.833,0,2.784,0
			c0,0.94,0,1.848,0,2.823C78.727,37.177,77.799,37.177,76.87,37.177z"/>
		<path fill-rule="evenodd" clip-rule="evenodd" fill="#FFFFFF" d="M23.036,57.018c0,0.94,0,1.881,0,2.821c-0.94,0-1.881,0-2.822,0
			c0-0.917,0-1.835,0-2.821C21.177,57.018,22.106,57.018,23.036,57.018z"/>
		<path fill-rule="evenodd" clip-rule="evenodd" fill="#FFFFFF" d="M14.5,48.508c0-0.941,0-1.882,0-2.822c0.95,0,1.899,0,2.917,0
			c0,0.963,0,1.893,0,2.822C16.445,48.508,15.473,48.508,14.5,48.508z"/>
		<path fill-rule="evenodd" clip-rule="evenodd" fill="#FFFFFF" d="M11.691,48.495c0.941,0,1.882,0,2.823,0c0,0.972,0,1.944,0,2.917
			c-0.94,0-1.881,0-2.823,0C11.691,50.439,11.691,49.467,11.691,48.495z"/>
		<path fill-rule="evenodd" clip-rule="evenodd" d="M57.028,74.076c0-1.884,0-3.768,0-5.686c0.924,0,1.833,0,2.774,0
			c0,1.867,0,3.744,0,5.671c-0.93,0-1.858,0-2.786,0L57.028,74.076z"/>
		<path fill-rule="evenodd" clip-rule="evenodd" d="M62.729,65.54c0.918,0,1.836,0,2.822,0c0,0.962,0,1.894,0,2.822
			c-0.918,0-1.835,0-2.822,0C62.729,67.397,62.729,66.469,62.729,65.54z"/>
		<path fill-rule="evenodd" clip-rule="evenodd" d="M65.538,68.35c0.942,0,1.883,0,2.824,0c0,0.94,0,1.882,0,2.822
			c-0.919,0-1.837,0-2.824,0C65.538,70.207,65.538,69.278,65.538,68.35z"/>
		<path fill-rule="evenodd" clip-rule="evenodd" d="M74.072,68.364c0-0.916,0-1.833,0-2.783c0.926,0,1.833,0,2.774,0
			c0,0.901,0,1.809,0,2.769c-0.932,0-1.858,0-2.786,0L74.072,68.364z"/>
		<path fill-rule="evenodd" clip-rule="evenodd" d="M79.652,79.667c-0.93,0-1.826,0-2.75,0c0-0.919,0-1.815,0-2.752
			c0.898,0,1.808,0,2.75,0C79.652,77.81,79.652,78.717,79.652,79.667z"/>
		<path fill-rule="evenodd" clip-rule="evenodd" d="M11.691,42.889c0-0.941,0-1.881,0-2.822c0.941,0,1.882,0,2.823,0
			c0,0.941,0,1.881,0,2.822C13.573,42.889,12.632,42.889,11.691,42.889z"/>
		<path fill-rule="evenodd" clip-rule="evenodd" d="M45.699,34.354c0,0.94,0,1.881,0,2.823c-0.917,0-1.834,0-2.783,0
			c0-0.94,0-1.849,0-2.823C43.842,34.354,44.771,34.354,45.699,34.354z"/>
		<path fill-rule="evenodd" clip-rule="evenodd" d="M90.997,8.921c0,2.836,0,5.638,0,8.465c-2.823,0-5.625,0-8.464,0
			c0-2.806,0-5.619,0-8.465C85.334,8.921,88.146,8.921,90.997,8.921z"/>
		<path fill-rule="evenodd" clip-rule="evenodd" d="M8.921,82.516c2.835,0,5.638,0,8.464,0c0,2.825,0,5.625,0,8.464
			c-2.804,0-5.617,0-8.464,0C8.921,88.18,8.921,85.367,8.921,82.516z"/>
		<path fill-rule="evenodd" clip-rule="evenodd" d="M17.377,17.389c-2.836,0-5.639,0-8.465,0c0-2.823,0-5.625,0-8.464
			c2.806,0,5.619,0,8.465,0C17.377,11.728,17.377,14.541,17.377,17.389z"/>
		<path fill-rule="evenodd" clip-rule="evenodd" d="M40.066,23.023c0.941,0,1.882,0,2.823,0c0,0.941,0,1.881,0,2.822
			c-0.918,0-1.836,0-2.823,0C40.066,24.881,40.066,23.952,40.066,23.023z"/>
	</g>
</g>
</svg>
