<?xml version="1.0" encoding="utf-8"?>
<!-- Generator: Adobe Illustrator 16.0.0, SVG Export Plug-In . SVG Version: 6.00 Build 0)  -->
<!DOCTYPE svg PUBLIC "-//W3C//DTD SVG 1.1//EN" "http://www.w3.org/Graphics/SVG/1.1/DTD/svg11.dtd">
<svg version="1.1" id="Capa_1" xmlns="http://www.w3.org/2000/svg" xmlns:xlink="http://www.w3.org/1999/xlink" x="0px" y="0px"
	 width="155px" height="230px" viewBox="0 0 155 230" enable-background="new 0 0 155 230" xml:space="preserve">
<path fill="#F2F2F2" d="M54.55,1.737c13.188,11.018,35.174,9.461,46.018-0.094c6.749,5.063,14.954,6.285,22.98,7.952
	c0,2.509-0.141,4.909,0.022,7.293c0.793,11.649,1.035,23.391,2.76,34.903c0.968,6.44,3.984,12.59,8.521,17.914
	c3.998,4.694,8.357,8.59,13.743,11.503c0.794,0.429,1.379,2.062,1.331,3.105c-0.713,15.928-1.925,31.842-2.27,47.773
	c-0.646,29.577-0.533,59.16,1.56,88.693c0.142,1.999-0.673,2.411-2.347,2.539c-14.662,1.134-29.328,2.18-43.969,3.506
	c-25.668,2.326-51.202,0.039-76.753-1.895c-5.89-0.446-11.762-1.143-17.651-1.558c-2.087-0.15-2.727-0.849-2.576-2.979
	c2.216-31.756,2.147-63.555,1.378-95.348c-0.323-13.31-1.327-26.604-2.201-39.896c-0.165-2.492,0.574-3.798,2.736-4.882
	c9.474-4.743,15.528-12.773,19.103-22.315c2.246-6.003,3.202-12.658,3.723-19.1c0.729-9.031,0.613-18.137,0.621-27.212
	c0-1.854,0.683-2.107,2.12-2.483c5.349-1.398,10.696-2.828,15.959-4.504C51.209,4.064,52.826,2.729,54.55,1.737z M53.472,9.042
	c0.503,3.246,0.899,6.002,1.361,8.751c2.236,13.41,8.396,24.434,19.548,32.526c2.273,1.652,3.915,1.556,6.108-0.09
	c6.58-4.936,11.935-10.86,15.354-18.371c3.19-7.01,5.049-14.354,4.966-22.346C85.06,16.453,69.607,16.618,53.472,9.042z"/>
</svg>
